<svg xmlns="http://www.w3.org/2000/svg" viewBox="0 0 96.18 63.96"><defs><style>.cls-1{fill:#231f20;}</style></defs><title>Asset 24</title><g id="Layer_2" data-name="Layer 2"><g id="Illustrations"><path class="cls-1" d="M73.26,9.48,50.35,57.94s11.36,6,22.91,6,22.92-6,22.92-6Zm0,48.81a41.7,41.7,0,0,1-15.71-3L73.26,22Z"/><path class="cls-1" d="M67.84,8.55,45.08.15a2.46,2.46,0,0,0-1.69,0L21.3,8.3a2.37,2.37,0,0,0-1.57,2.33V25.51l-.49,0C5.85,25.49-4.39,39.23,1.9,53.35A17.2,17.2,0,0,0,10.45,62c13.37,6.06,26.4-2.71,27.88-15l5.06,1.87a2.46,2.46,0,0,0,1.69,0l4.49-1.66ZM25,33.19A16.35,16.35,0,0,0,8.66,49.54a16.15,16.15,0,0,0,.27,2.88c-3.38-4-4.46-10-1.17-16a10.38,10.38,0,0,1,4.12-4.11c6-3.28,12-2.2,16,1.18A16.18,16.18,0,0,0,25,33.19Zm-.47-6.94V14l17.3,6.39V43.2l-3.6-1.33A19.26,19.26,0,0,0,24.54,26.25ZM44.21,16.19,29,10.58,44.21,5,59.4,10.58Z"/></g></g></svg>