<?xml version="1.0" encoding="utf-8"?>
<!-- Generator: Adobe Illustrator 22.0.0, SVG Export Plug-In . SVG Version: 6.00 Build 0)  -->
<svg version="1.1" id="Layer_1" xmlns="http://www.w3.org/2000/svg" xmlns:xlink="http://www.w3.org/1999/xlink" x="0px" y="0px"
	 viewBox="0 0 94.6 92" style="enable-background:new 0 0 94.6 92;" xml:space="preserve">
<title>Asset 44</title>
<g>
	<g>
		<path d="M72.4,0C60.1,0,50.1,10,50.1,22.3s10,22.3,22.3,22.3s22.3-10,22.3-22.3S84.6,0,72.4,0z M60.4,31.2
			C48.6,15.6,67.9-2.5,82.4,9.2C70.4,7.3,58.3,16.4,60.4,31.2z"/>
	</g>
	<path d="M48.2,35.3c-1.3,2-2.4,4-2.9,6.1c-0.6,2.1-0.8,4.2-0.6,6.2c0.3,2.1,1.1,4,2.2,5.7c1.2,1.7,2.7,3.1,4.5,4
		c1.8,0.9,3.8,1.5,5.9,1.5c2.1,0,4.1-0.4,6-1.3c1.9-0.9,3.5-2.4,4.8-4c1.4-1.7,2.5-3.6,3.5-5.9l0.1,0c0.5,2.4,0,5.1-1.2,7.4
		c-1.3,2.3-3.3,4.1-5.6,5.5c-2.3,1.3-4.9,2.1-7.6,2.1c-2.7,0-5.4-0.6-7.8-1.8c-2.4-1.3-4.4-3.2-5.9-5.4c-1.4-2.3-2.3-4.9-2.6-7.5
		c-0.1-1.3-0.1-2.7,0.2-4c0.2-1.3,0.7-2.6,1.3-3.7c1.2-2.3,3.1-4.3,5.4-5.3L48.2,35.3z"/>
	<path d="M38.7,55.1c-2.2,3.3-3.3,6.8-2.9,10.2c0.2,1.7,0.9,3.3,1.9,4.7c1,1.4,2.3,2.5,3.8,3.3c1.5,0.8,3.2,1.2,4.9,1.3
		c1.7,0,3.4-0.3,5-1.1c1.6-0.8,2.9-2,4-3.3c1.1-1.4,2.1-3,2.9-4.9l0.1,0c0.5,2,0,4.3-1,6.2c-1.1,1.9-2.7,3.5-4.6,4.6
		c-1.9,1.1-4.1,1.8-6.4,1.8c-2.2,0-4.5-0.5-6.5-1.5c-2-1.1-3.7-2.6-5-4.5c-1.2-1.9-2-4.1-2.1-6.3c-0.1-1.1,0-2.2,0.1-3.3
		c0.2-1.1,0.6-2.1,1.1-3.1c1-1.9,2.6-3.6,4.5-4.4L38.7,55.1z"/>
	<path d="M28.7,74.3c-1.7,2.6-2.4,5.2-2.1,7.9c0.4,2.6,2,4.9,4.3,6.1c1.1,0.6,2.4,1,3.7,1c1.3,0,2.6-0.3,3.8-0.8
		c1.2-0.6,2.2-1.5,3.1-2.5c0.9-1.1,1.6-2.3,2.3-3.7l0.1,0c0.4,1.6,0.1,3.3-0.7,4.8c-0.8,1.5-2.1,2.7-3.6,3.6c-1.5,0.8-3.2,1.4-5,1.4
		c-1.7,0-3.5-0.4-5.1-1.2c-1.5-0.8-2.9-2.1-3.9-3.5c-0.9-1.5-1.5-3.2-1.7-4.9c-0.1-1.7,0.1-3.5,1-5c0.8-1.5,2-2.8,3.6-3.4L28.7,74.3
		z"/>
	<path d="M24.1,65.9c-2.1-1.2-4.2-1.7-6.2-1.3c-2,0.4-3.8,1.8-4.6,3.6c-0.4,0.9-0.6,1.9-0.6,2.9c0,1,0.3,2,0.8,2.9
		c0.5,0.9,1.2,1.7,2.1,2.3c0.9,0.6,1.8,1.2,3,1.7l0,0.1c-1.2,0.4-2.6,0.2-3.8-0.4c-1.2-0.6-2.2-1.5-2.9-2.7
		c-0.7-1.1-1.2-2.5-1.3-3.8c-0.1-1.4,0.1-2.8,0.7-4c0.6-1.2,1.5-2.3,2.6-3.2c1.1-0.8,2.4-1.3,3.8-1.5c1.3-0.2,2.7,0,4,0.6
		c1.2,0.6,2.2,1.5,2.8,2.7L24.1,65.9z"/>
	<path d="M6.5,63.5c-1.7,0-3.3-0.7-4.6-1.9C0.7,60.4,0,58.7,0,57s0.7-3.3,1.9-4.6c2.4-2.4,6.7-2.4,9.1,0c1.2,1.2,1.9,2.8,1.9,4.6
		c0,1.7-0.7,3.3-1.9,4.6l0,0l0,0l0,0C9.8,62.8,8.2,63.5,6.5,63.5z M6.5,52.4c-1.2,0-2.4,0.5-3.3,1.4c-0.9,0.9-1.4,2-1.4,3.3
		s0.5,2.4,1.4,3.3C4.9,62,8,62,9.7,60.3l0,0c0.9-0.9,1.4-2,1.4-3.3s-0.5-2.4-1.4-3.3C8.8,52.9,7.7,52.4,6.5,52.4z"/>
</g>
</svg>
