<?xml version="1.0" encoding="utf-8"?>
<!-- Generator: Adobe Illustrator 22.0.0, SVG Export Plug-In . SVG Version: 6.00 Build 0)  -->
<svg version="1.1" id="Layer_1" xmlns="http://www.w3.org/2000/svg" xmlns:xlink="http://www.w3.org/1999/xlink" x="0px" y="0px"
	 viewBox="0 0 86.9 84.8" style="enable-background:new 0 0 86.9 84.8;" xml:space="preserve">
<title>Asset 58</title>
<g>
	<path d="M70.3,0H16.6L0,47l12,37.8h63l12-37.8L70.3,0z M54.5,67.3h-23c-2,0-3.7-1.7-3.7-3.7c0-2,1.7-3.7,3.7-3.7h23
		c2,0,3.7,1.7,3.7,3.7C58.2,65.6,56.6,67.3,54.5,67.3z M6.8,44.2L20.5,5.5h45.9l13.7,38.7H6.8z"/>
	<g>
		<path d="M15.8,36.8L15.8,36.8l55.3,0v0c0-3.1-2.5-5.5-5.5-5.5H21.4C18.3,31.3,15.8,33.7,15.8,36.8z"/>
	</g>
	<g>
		<path d="M19.5,27.6L19.5,27.6l47.9,0v0c0-3.1-2.5-5.5-5.5-5.5H25C22,22,19.5,24.5,19.5,27.6z"/>
	</g>
	<g>
		<path d="M22.3,18.4L22.3,18.4l42.4,0v0c0-3.1-2.5-5.5-5.5-5.5H27.8C24.7,12.8,22.3,15.3,22.3,18.4z"/>
	</g>
</g>
</svg>
