<svg xmlns="http://www.w3.org/2000/svg" viewBox="0 0 102.3 96.4"><defs><style>.cls-1{fill:#231f20;}</style></defs><title>Asset 53</title><g id="Layer_2" data-name="Layer 2"><g id="Illustrations"><path class="cls-1" d="M49,9.43H47.44l-2.36,6.5,0,.13h1.82l.36-1.12h2l.38,1.12h1.8L49,9.49Zm-.24,4.06H47.68l.54-1.66Z"/><path class="cls-1" d="M55.51,13.59a2.27,2.27,0,0,0,.52-.25,2,2,0,0,0,.5-.46,2.13,2.13,0,0,0,.31-.6,2.11,2.11,0,0,0,.11-.71,2.22,2.22,0,0,0-.16-.85,2.06,2.06,0,0,0-1.16-1.13,2.35,2.35,0,0,0-.89-.16h-3v6.63h1.73V13.71h.16L55.51,16l0,0h2Zm-.28-2a.64.64,0,0,1-.06.28.55.55,0,0,1-.14.22.62.62,0,0,1-.19.14.35.35,0,0,1-.19.06H53.46v-1.4h1.19a.45.45,0,0,1,.19.05.94.94,0,0,1,.19.14.74.74,0,0,1,.14.22A.72.72,0,0,1,55.23,11.57Z"/><path class="cls-1" d="M81.35,68.68,72.11,49H64.73V4.53A4.54,4.54,0,0,0,60.19,0H28.06a4.53,4.53,0,0,0-4.53,4.53v7.53a24.73,24.73,0,0,0,0,49.41v6.78a4.53,4.53,0,0,0,4.53,4.53H60.19a4.54,4.54,0,0,0,4.54-4.53v-10h3.16l-.17,13.55a4,4,0,0,1-4,4c-5.26,0-24.27-.08-28.49,0,4.78,3.8,11.63,5.48,17.49,6.68,6.28,1.28,12.65,1.93,19,3,.94.17,1.88.34,2.82.53,5.54,1.12,8.92,4.66,10,10.39.09,0,17.87-12.32,17.87-12.32ZM34.73,34.31l2.6-.23s-.11-1.69-.29-2.87c5.71,1.39,9.18,3.72,9.18,5.56s-3.67,4.31-9.17,5.54a36.7,36.7,0,0,0,.33-4l-2.6-.16s-.12,2.21-.48,4.68a68.16,68.16,0,0,1-6.85.72V29.93a65.89,65.89,0,0,1,6.83.72C34.53,32.15,34.73,34.31,34.73,34.31ZM31.38,52.65s-2.78,3.79-3.93,4.5V46.72c2.1-.09,6.17-.57,6.21-.59a29.15,29.15,0,0,1-.81,3.09l2.5.75a44.3,44.3,0,0,0,1.15-4.36,27.72,27.72,0,0,0,9.18-3.41A21.69,21.69,0,0,1,31.14,57.44c.61-.67,2.45-3.39,2.45-3.39Zm5.13-24.73A34.24,34.24,0,0,0,35,22.52l-2.47.84s1,2.84,1.17,4a48.68,48.68,0,0,0-6.22-.59V16.37A24.59,24.59,0,0,1,30.91,20L33,18.5a16.63,16.63,0,0,0-1.9-2.41A21.7,21.7,0,0,1,45.68,31.33,27.17,27.17,0,0,0,36.51,27.92ZM60.8,68.25a.6.6,0,0,1-.61.6H28.06a.61.61,0,0,1-.61-.6V61.38a24.76,24.76,0,0,0,0-49.23V4.53a.61.61,0,0,1,.61-.6H60.19a.6.6,0,0,1,.61.6V49H48.7s.38,9.26,9.24,9.26H60.8Z"/></g></g></svg>