<svg xmlns="http://www.w3.org/2000/svg" viewBox="0 0 88.73 91.38"><defs><style>.cls-1{fill:#231f20;}</style></defs><title>Asset 34</title><g id="Layer_2" data-name="Layer 2"><g id="Illustrations"><path class="cls-1" d="M60.77,32.64,75.2,17.25,58,0H4.81A4.82,4.82,0,0,0,0,4.81V86.57a4.81,4.81,0,0,0,4.81,4.81H58L88.73,60.6Zm-.9,25.08L37.75,35.59H55.56L77.68,57.72Zm4.35-43.29H46.41L37.75,5.77H55.56ZM29.59,85.61H5.77V5.77H29.59l11.6,11.61L29.33,30a3.88,3.88,0,0,0,.08,5.4L54.6,60.6Z"/><path class="cls-1" d="M17.27,26.48a1.91,1.91,0,0,0,2-.22l8.21-6.67-8.21-6.67a1.93,1.93,0,0,0-3.12,1.51V24.75A1.92,1.92,0,0,0,17.27,26.48Z"/><path class="cls-1" d="M19.47,43.2a1.93,1.93,0,0,0-3.28,1.36V73.75a1.92,1.92,0,0,0,3.28,1.36l16.12-16Z"/></g></g></svg>