<svg xmlns="http://www.w3.org/2000/svg" viewBox="0 0 89.07 88.58"><defs><style>.cls-1{fill:#231f20;}</style></defs><title>Asset 60</title><g id="Layer_2" data-name="Layer 2"><g id="Illustrations"><path class="cls-1" d="M17.68,34.15l2.2,7,2.2-7c2.63-8.33,2.63-8.33,11.47-11.42l6.21-2.17-6.21-2.18C24.71,15.29,24.71,15.29,22.08,7l-2.2-7-2.2,7c-2.63,8.33-2.63,8.33-11.47,11.42L0,20.56l6.21,2.17C15.05,25.82,15.05,25.82,17.68,34.15Zm2.2-19.58c1.37,3.06,2.92,4.49,6.35,6-3.43,1.5-5,2.92-6.35,6-1.37-3.07-2.92-4.49-6.36-6C17,19.06,18.51,17.63,19.88,14.57Z"/><path class="cls-1" d="M82.86,66.77c-8.13-2.84-8.13-2.84-10.55-10.5l-2.2-7-2.19,7c-2.42,7.66-2.42,7.66-10.55,10.5L51.16,69l6.21,2.17C65.5,74,65.5,74,67.92,81.62l2.19,7,2.2-7C74.73,74,74.73,74,82.86,71.12L89.07,69ZM70.11,74.11c-1.2-2.57-2.6-3.86-5.49-5.16,2.89-1.3,4.29-2.59,5.49-5.16,1.21,2.57,2.61,3.86,5.5,5.16C72.72,70.25,71.32,71.54,70.11,74.11Z"/><circle class="cls-1" cx="8.36" cy="47.75" r="7.37"/><path class="cls-1" d="M38.1,31.64l1.24-.87a22.58,22.58,0,0,0,6.82-7.47A33.52,33.52,0,0,1,59.73,9.89l2.78-1.5,2.13,2.13-.14.15L16.83,58.34l3,3-1.11,1.11-4.14,1a7.91,7.91,0,0,0-5.81,5.52L3.42,87.73l18.79-5.37a7.86,7.86,0,0,0,5.52-5.81l1-4.13,1.11-1.11,3,3L84.4,22.75l.59-.59a11.79,11.79,0,0,0,3.54-7.61,11.25,11.25,0,0,0-3.7-9A11.55,11.55,0,0,0,69,6.17l-.73.73L63.43,2.07,57.3,5.37C38.78,17.33,38.1,31.64,38.1,31.64ZM32.82,66.51l-2.46-2.46L74.12,20.29l2.46,2.46ZM73.16,9.83A5.78,5.78,0,0,1,81.33,18l-.84.84-8.17-8.17Zm-4.75,4.75L70.86,17c-7.71,7.72-36,36.06-43.76,43.76l-2.45-2.45ZM23.66,69.63l-1.31,5.68a2.4,2.4,0,0,1-1.66,1.74l-9.22,2.63,2.64-9.22a2.35,2.35,0,0,1,1.74-1.65l5.68-1.31,2.23-2.23,2.13,2.13Z"/></g></g></svg>