<svg xmlns="http://www.w3.org/2000/svg" viewBox="0 0 85.69 90.9"><defs><style>.cls-1{fill:#231f20;}</style></defs><title>Asset 25</title><g id="Layer_2" data-name="Layer 2"><g id="Illustrations"><path class="cls-1" d="M19.83,42.17c-2.45,2.45-4.41,3.61-7.54,3.61A9,9,0,0,1,5.93,43.1a7,7,0,0,1,0-9.84,5.17,5.17,0,0,1,7.32,0,3.73,3.73,0,0,1,1.11,2.65,3.78,3.78,0,0,1-1.11,2.67,2.63,2.63,0,0,1-3.71,0c-1.36-1.36.34-2.77.34-2.77A2.79,2.79,0,0,0,6.8,34.9a2.56,2.56,0,0,0-1.6,2.29A5.58,5.58,0,0,0,6.82,41.3a6.48,6.48,0,0,0,9.15,0,7.6,7.6,0,0,0,0-10.76,9,9,0,0,0-12.77,0,10.82,10.82,0,0,0,0,15.28,13,13,0,0,0,9.22,3.81C19.58,49.63,19.83,43.39,19.83,42.17Z"/><path class="cls-1" d="M65.17,55.4C53.49,41.22,52,39.39,59.73,27l2.76-4.41H23.21L26,27c7.72,12.35,6.47,13.87-5.5,28.44-1.83,2.22-7,8.64-7,8.64C10,68.47,9.65,75.78,12.59,81.86c2.74,5.66,7.77,9,13.47,9H59.65c5.69,0,10.73-3.39,13.47-9.06,3-6.17,2.63-13.3-.88-17.74C72.24,64.1,67,57.63,65.17,55.4ZM21.74,63l3.18-3.89c11-13.34,15-18.3,8.51-30.74H52.29c-6.53,12.53-2.23,17.74,8.43,30.68,1,1.23,2.09,2.54,3.23,3.95Z"/><path class="cls-1" d="M7.92,12.11s-1.59,4.6-5,5.24c-1.3.25-2.29,0-2.72-.77S0,14.84.89,13.83C3.09,11.28,7.92,12.11,7.92,12.11Z"/><path class="cls-1" d="M11.63,10s4.77.93,7-1.7c.87-1,1.12-2,.69-2.75s-1.42-1-2.72-.77C13.32,5.38,11.63,10,11.63,10Z"/><path class="cls-1" d="M9.77,13.2s3.18,3.66,2,6.94c-.44,1.25-1.18,2-2,2s-1.59-.72-2-2C6.63,17,9.77,13.2,9.77,13.2Z"/><path class="cls-1" d="M9.77,8.91S13,5.24,11.81,2c-.44-1.25-1.18-2-2-2s-1.59.72-2,2C6.63,5.15,9.77,8.91,9.77,8.91Z"/><path class="cls-1" d="M11.63,12.14s4.77-.93,7,1.7c.87,1,1.12,2,.69,2.75s-1.42,1-2.72.77C13.32,16.73,11.63,12.14,11.63,12.14Z"/><path class="cls-1" d="M7.92,10s-1.59-4.59-5-5.23c-1.3-.25-2.29,0-2.72.77S0,7.27.89,8.28C3.09,10.83,7.92,10,7.92,10Z"/><path class="cls-1" d="M54.39,15.87A7.7,7.7,0,1,0,46.7,8.18,7.69,7.69,0,0,0,54.39,15.87Zm0-10.58a2.89,2.89,0,1,1-2.88,2.89A2.9,2.9,0,0,1,54.39,5.29Z"/><circle class="cls-1" cx="33.23" cy="12.02" r="3.85"/><circle class="cls-1" cx="76.52" cy="7.21" r="3.85"/><path class="cls-1" d="M62,38.23c2.93,2.93,5.28,4.31,9,4.31a10.76,10.76,0,0,0,7.6-3.21,8.33,8.33,0,0,0,0-11.76,6.2,6.2,0,0,0-8.76,0,4.51,4.51,0,0,0,0,6.36,3.15,3.15,0,0,0,4.44,0c1.62-1.62-.41-3.31-.41-3.31a3.34,3.34,0,0,1,3.68-1.08,3,3,0,0,1,1.92,2.74,6.69,6.69,0,0,1-1.94,4.9,7.74,7.74,0,0,1-10.94,0,9.1,9.1,0,0,1,0-12.86,10.8,10.8,0,0,1,15.26,0,12.93,12.93,0,0,1,0,18.27,15.47,15.47,0,0,1-11,4.55C62.35,47.14,62,39.69,62,38.23Z"/></g></g></svg>