<svg xmlns="http://www.w3.org/2000/svg" viewBox="0 0 87.61 92.34"><defs><style>.cls-1{fill:#231f20;}</style></defs><title>Asset 27</title><g id="Layer_2" data-name="Layer 2"><g id="Illustrations"><path class="cls-1" d="M66.45,0A21.17,21.17,0,1,0,87.61,21.16,21.18,21.18,0,0,0,66.45,0Zm0,5.77A15.34,15.34,0,0,1,75.1,8.44L53.73,29.81a15.38,15.38,0,0,1,12.72-24Zm0,30.78a15.28,15.28,0,0,1-8.64-2.66L79.18,12.52a15.38,15.38,0,0,1-12.73,24Z"/><path class="cls-1" d="M32.35,12.86c0,3.52-3.44,6.38-7.69,6.38S17,16.38,17,12.86V6.38C17,2.86,20.41,0,24.66,0s7.69,2.86,7.69,6.38Z"/><path class="cls-1" d="M42.6,29.6a9.63,9.63,0,0,0-8.19-7.75,78.18,78.18,0,0,0-20.72,0A9.61,9.61,0,0,0,5.5,29.6L0,58.68a7.79,7.79,0,0,0,7.45-5.52l5.06-16.61c-1.26,27.46-1.3,9.44,0,55.79a6.75,6.75,0,0,0,6.67-5.7l4.87-30.85,4.87,30.85a6.75,6.75,0,0,0,6.67,5.7c1.3-46.35,1.26-28.33,0-55.79l5,16.61a7.8,7.8,0,0,0,7.46,5.52Z"/><path class="cls-1" d="M41.4,78.37v9.41a1.92,1.92,0,0,0,1.92,1.92H64.49a1.92,1.92,0,0,0,1.92-1.92V78.37A28.66,28.66,0,0,1,53.9,81,28.65,28.65,0,0,1,41.4,78.37Z"/><path class="cls-1" d="M47.17,70.46H42.36a1.92,1.92,0,0,0-1.92,1.92V75.6l.45.29c3.27,2,8,3.23,13,3.23s9.75-1.18,13-3.23l.45-.29V72.38a1.92,1.92,0,0,0-1.92-1.92H60.64V68.54a3.86,3.86,0,0,0-3.85-3.85H51a3.86,3.86,0,0,0-3.85,3.85Zm9.62-1.92v1.92H51V68.54Z"/></g></g></svg>