<svg xmlns="http://www.w3.org/2000/svg" viewBox="0 0 94.17 101.72"><defs><style>.cls-1{fill:#231f20;}</style></defs><title>Asset 47</title><g id="Layer_2" data-name="Layer 2"><g id="Illustrations"><path class="cls-1" d="M55.38,11.68c-.41-1.17-1.13-1.84-2-1.84s-1.57.67-2,1.84c-1,2.78,2,6.3,2,6.3S56.38,14.54,55.38,11.68Z"/><path class="cls-1" d="M24.29,38.82c-1.17.41-1.84,1.13-1.84,2s.67,1.57,1.84,2c2.78,1,6.3-2,6.3-2S27.15,37.82,24.29,38.82Z"/><path class="cls-1" d="M82.52,42.77c1.17-.41,1.84-1.13,1.84-2s-.67-1.57-1.84-2c-2.78-1-6.3,2-6.3,2S79.66,43.77,82.52,42.77Z"/><path class="cls-1" d="M75.35,21.57a2.29,2.29,0,0,0-.1-2.7,2.29,2.29,0,0,0-2.7-.1c-2.65,1.28-3.06,5.85-3.06,5.85S74,24.3,75.35,21.57Z"/><path class="cls-1" d="M34.17,18.7a2.29,2.29,0,0,0-2.7.1,2.29,2.29,0,0,0-.1,2.69c1.28,2.66,5.85,3.07,5.85,3.07S36.9,20,34.17,18.7Z"/><path class="cls-1" d="M65.58,48.67l-9-8.6-.07-11.48c0-2.29-1.34-3.49-3.44-5.3l-.9-.79L52.31,41A2.13,2.13,0,0,0,53,42.53L65.71,54.72A4.29,4.29,0,0,0,65.58,48.67Z"/><path class="cls-1" d="M94.17,40.79a40.79,40.79,0,0,0-81.58,0A40.36,40.36,0,0,0,14.5,53c-1,.14-1.95.31-2.92.52-4.24.93-11.06,3-11.53,8.27,0,.16,0,.31,0,.5V85.36C0,91.72,10.41,95,20.7,95a46.8,46.8,0,0,0,5.83-.36c2.45,4.62,11.26,7,20,7,10.29,0,20.7-3.33,20.7-9.68,0,0,0-12.49,0-12.89A40.85,40.85,0,0,0,94.17,40.79ZM22.9,90.09c-.71,0-1.44.06-2.2.06-10.27,0-15.81-3.4-15.81-4.79V84.24a20.61,20.61,0,0,0,2.55,1.12,39.58,39.58,0,0,0,13.26,2.1c.74,0,1.47,0,2.2,0Zm0-7.75c-.71,0-1.44.06-2.2.06C10.43,82.4,4.89,79,4.89,77.61V76.49a21.48,21.48,0,0,0,2.55,1.12,39.84,39.84,0,0,0,13.26,2.1c.74,0,1.47,0,2.2-.06Zm0-7.75c-.71,0-1.44.06-2.2.06-10.27,0-15.81-3.4-15.81-4.79V68.73a20.62,20.62,0,0,0,2.55,1.13A39.84,39.84,0,0,0,20.7,72c.74,0,1.47,0,2.2-.06Zm-2.2-7.52c-10.27,0-15.81-3.4-15.81-4.79s5.54-4.79,15.81-4.79,15.82,3.4,15.82,4.79S31,67.07,20.7,67.07ZM47.08,96.82h-.54c-10.27,0-15.81-3.4-15.81-4.79V90.91A20,20,0,0,0,33.28,92a39.84,39.84,0,0,0,13.26,2.1h.54Zm0-7.76h-.54c-10.27,0-15.81-3.4-15.81-4.79h0V83.16a20,20,0,0,0,2.55,1.12,39.58,39.58,0,0,0,13.26,2.1h.54Zm-.54-7.57c-10.27,0-15.81-3.4-15.81-4.78s5.54-4.79,15.81-4.79,15.82,3.4,15.82,4.79S56.81,81.49,46.54,81.49Zm19.71-8C63.42,69.24,54.94,67,46.54,67a48.73,48.73,0,0,0-5.14.28s0-5,0-5c0-4.89-5.83-7.26-9.74-8.32a41.35,41.35,0,0,0-11.44-1.42,35.19,35.19,0,1,1,46,21Z"/><path class="cls-1" d="M72.69,62.86a2,2,0,0,0,2.8-2.8C74.21,57.41,69.64,57,69.64,57S70,61.55,72.69,62.86Z"/></g></g></svg>