<svg xmlns="http://www.w3.org/2000/svg" viewBox="0 0 88.49 88.49"><defs><style>.cls-1{fill:#231f20;}</style></defs><title>Asset 49</title><g id="Layer_2" data-name="Layer 2"><g id="Illustrations"><polygon class="cls-1" points="47.01 41.48 47.01 0 41.48 0 41.48 41.48 0 41.48 0 47.01 41.48 47.01 41.48 88.49 47.01 88.49 47.01 47.01 88.49 47.01 88.49 41.48 47.01 41.48"/><path class="cls-1" d="M68.21.06,52.75,32.26H83.66Zm0,12.78,6.67,13.89H61.54Z"/><path class="cls-1" d="M14.75,33.18H25.81a6.45,6.45,0,0,0,6.45-6.45V6.45A6.45,6.45,0,0,0,25.81,0H14.75A6.45,6.45,0,0,0,8.3,6.45V26.73A6.45,6.45,0,0,0,14.75,33.18Zm11.06-5.53H16.23L26.73,11.9V26.73A.92.92,0,0,1,25.81,27.65ZM14.75,5.53h9.58L13.83,21.28V6.45A.92.92,0,0,1,14.75,5.53Z"/><path class="cls-1" d="M71.9,59.45a3.22,3.22,0,0,0-5.21-2.54L57,64.48l3.4,4.36,6-4.68v16H59.91v5.53H78.35V80.19H71.9Z"/><path class="cls-1" d="M21.2,68.21H18.43a2.77,2.77,0,0,1,0-5.53H28.57V57.15H23V53.46H17.51v3.78a8.27,8.27,0,0,0,.92,16.5H21.2a2.77,2.77,0,1,1,0,5.53H10.14V84.8h7.37v3.69H23V84.58A8.29,8.29,0,0,0,21.2,68.21Z"/></g></g></svg>