<svg xmlns="http://www.w3.org/2000/svg" viewBox="0 0 88.56 90.85"><defs><style>.cls-1{fill:#231f20;}</style></defs><title>Asset 59</title><g id="Layer_2" data-name="Layer 2"><g id="Illustrations"><path class="cls-1" d="M30.28,53h-3.5V42.26H35a28.22,28.22,0,0,1,3.17-3.65H26.78V27H45.35v6.53A33.83,33.83,0,0,1,49,32V27H66.66v3.44a34.93,34.93,0,0,1,5.47,1.29V0H0V52.11a6.39,6.39,0,0,0,6.44,6.32H29.68A31.37,31.37,0,0,1,30.28,53ZM49,12.62H66.66V23.35H49Zm-22.22,0H45.35V23.35H26.78ZM23.13,53H6.44a.91.91,0,0,1-1-.85V42.26H23.13Zm0-14.35H5.47V27H23.13Zm0-15.26H5.47V12.62H23.13Z"/><path class="cls-1" d="M39.12,55.39c2-9.54,10.66-16.1,22.07-16.1s20.09,6.56,22.07,16.1a5.19,5.19,0,0,0,5,4.24c0-14.46-11.4-25-27.11-25s-27.11,10.49-27.11,25A5.19,5.19,0,0,0,39.12,55.39Z"/><path class="cls-1" d="M46.31,56.83c0,2.74,1.85,5,4.13,5s4.13-2.22,4.13-5-1.85-5-4.13-5S46.31,54.09,46.31,56.83Z"/><path class="cls-1" d="M67.8,56.83c0,2.74,1.86,5,4.14,5s4.13-2.22,4.13-5-1.85-5-4.13-5S67.8,54.09,67.8,56.83Z"/><path class="cls-1" d="M55.6,65.7l2.19,13a4.23,4.23,0,0,0,6.63.2l.17-.2,2.19-13-.27-.21A9.24,9.24,0,0,0,55.6,65.7Z"/><path class="cls-1" d="M84.89,65l.69-3.5-3.47.81A17.5,17.5,0,0,0,72,70a20.07,20.07,0,0,0-2.72,10.41s0,0-.06.06a9.47,9.47,0,0,1-8,4,9.37,9.37,0,0,1-8-3.91s0,0-.05-.05A20,20,0,0,0,50.4,70a17.5,17.5,0,0,0-10.13-7.66l-3.47-.81.69,3.5c0,.15,2.89,15-3.67,21.58a3.91,3.91,0,0,0,6.24-.92C42.94,80,43,72.88,42.57,68.4a12.64,12.64,0,0,1,3.89,4c2.35,3.86,2.7,9.1,1,15.58a2.31,2.31,0,0,0,1.67,2.8,2.22,2.22,0,0,0,.57.07A2.3,2.3,0,0,0,52,89.12c.24-.93.43-1.85.6-2.74a14.73,14.73,0,0,0,8.59,2.68h.06a14.72,14.72,0,0,0,8.58-2.71c.17.9.37,1.82.61,2.77a2.3,2.3,0,0,0,2.23,1.73,2.22,2.22,0,0,0,.57-.07A2.31,2.31,0,0,0,74.88,88c-1.65-6.44-1.31-11.66,1-15.52A12.75,12.75,0,0,1,79.8,68.4c-.37,4.48-.36,11.62,2.52,17.29a3.91,3.91,0,0,0,6.24.92C82,80.05,84.86,65.18,84.89,65Z"/></g></g></svg>