<svg xmlns="http://www.w3.org/2000/svg" viewBox="0 0 88.26 87.95"><defs><style>.cls-1{fill:#231f20;}</style></defs><title>Asset 35</title><g id="Layer_2" data-name="Layer 2"><g id="Illustrations"><path class="cls-1" d="M87.05,1.21a4.13,4.13,0,0,0-5.84,0l-.88.88,5.84,5.84.88-.88A4.13,4.13,0,0,0,87.05,1.21Z"/><path class="cls-1" d="M9.78,69.22h13a0,0,0,0,1,0,0v3.42a1.92,1.92,0,0,1-1.92,1.92H11.71a1.92,1.92,0,0,1-1.92-1.92V69.22a0,0,0,0,1,0,0Z" transform="translate(55.6 9.55) rotate(45)"/><path class="cls-1" d="M8.72,72.43,4.4,81.07,2,83.49a1.91,1.91,0,1,0,2.7,2.7L7.1,83.76l8.63-4.31Z"/><path class="cls-1" d="M84,8.93,78.47,3.39C73.33-1.75,62.53,1,53.88,9.66c-4.41,4.41-7.52,9.69-8.51,14.49l11.4-11.6C61.23,8.09,67.53,4.71,72,4.88l-57.3,57.3L25.45,73,84,14.4A3.87,3.87,0,0,0,84,8.93Z"/><path class="cls-1" d="M1.45,1.58a5,5,0,0,0,0,7L2.5,9.64l7-7-1.06-1A5,5,0,0,0,1.45,1.58Z"/><path class="cls-1" d="M87.05,83.43l-2.21-2.21.37-.37a2,2,0,0,0,.44-2.06c-3.14-8.88-5.73-14.29-5.73-14.29L64.37,80.05s5.42,2.58,14.3,5.72a1.93,1.93,0,0,0,2-.44l.37-.37,2.21,2.21a2.65,2.65,0,1,0,3.75-3.74Z"/><path class="cls-1" d="M42.83,29.68C31.34,18.34,20.84,7.73,17.55,4.44a3.16,3.16,0,0,0-4.45-.11L4.49,12.94a3.17,3.17,0,0,0,.1,4.46c3.29,3.28,13.84,13.85,25.12,25.4Z"/><path class="cls-1" d="M58.13,44.61,44.56,58.18c7.76,8.17,14.37,15.39,17.29,19.21L77.26,62Zm6.74,20.94a1.45,1.45,0,0,1-2,0l-8-8a1.45,1.45,0,0,1,0-2l.56-.55a1.45,1.45,0,0,1,2,0l8,8a1.45,1.45,0,0,1,0,2Z"/></g></g></svg>