<?xml version="1.0" encoding="utf-8"?>
<!-- Generator: Adobe Illustrator 22.0.0, SVG Export Plug-In . SVG Version: 6.00 Build 0)  -->
<svg version="1.1" id="Layer_1" xmlns="http://www.w3.org/2000/svg" xmlns:xlink="http://www.w3.org/1999/xlink" x="0px" y="0px"
	 viewBox="0 0 89.9 95.1" style="enable-background:new 0 0 89.9 95.1;" xml:space="preserve">
<title>Asset 24</title>
<g>
	<path d="M17.5,33.7l2.2,6.9l2.2-6.9c2.6-8.2,2.6-8.2,11.3-11.3l6.1-2.1l-6.1-2.1c-8.7-3.1-8.7-3.1-11.3-11.3L19.6,0l-2.2,6.9
		c-2.6,8.2-2.6,8.2-11.3,11.3L0,20.3l6.1,2.1C14.9,25.5,14.9,25.5,17.5,33.7z M19.6,14.4c1.4,3,2.9,4.4,6.3,5.9
		c-3.4,1.5-4.9,2.9-6.3,5.9c-1.4-3-2.9-4.4-6.3-5.9C16.7,18.8,18.3,17.4,19.6,14.4z"/>
	<circle cx="69.5" cy="54.5" r="7.9"/>
	<g>
		<path d="M89,1.1c-1.3-1.3-3.3-1.3-4.6,0l-0.7,0.7l4.6,4.6L89,5.7C90.2,4.4,90.2,2.4,89,1.1z"/>
		<path d="M34.9,60.2l-5-5c-0.6-0.6-0.6-1.5,0-2.1l1.9-1.9l7.2,7.2L37,60.2C36.4,60.8,35.5,60.8,34.9,60.2z"/>
		<path d="M27.9,56.6l-3.4,6.7l-1.9,1.9c-0.6,0.6-0.6,1.5,0,2.1c0.6,0.6,1.5,0.6,2.1,0l1.9-1.9l6.7-3.4L27.9,56.6z"/>
		<path d="M86.6,7.2l-4.3-4.3c-4-4-12.4-1.9-19.2,4.9c-3.4,3.4-5.9,7.6-6.6,11.3l8.9-9c3.5-3.5,8.4-6.1,11.8-6L32.6,48.6l8.4,8.4
			l45.6-45.6C87.8,10.2,87.8,8.3,86.6,7.2z"/>
	</g>
	<path d="M22.3,71.4c-3.8,0.2-9.9,1.6-10.9,5.8c-1.1,4.8,3.2,7.5,7,7.9c11.7,1.3,25.6-6.2,35.9-10.4C65,70.4,80.9,70,84.5,80.2
		c3.8,10.6-11,17.2-19.7,14.1c6.1-1,12.1-3.4,13.2-9.3c1.1-6.1-4-9.9-9.6-10C62.5,74.9,54,78.9,49,81.6c-5.9,3.2-14.7,7.1-21.1,9.2
		c-9.2,3.1-24.6,2.9-27.2-9C-0.5,76.5,2,70.9,7,68.4C11.6,66.2,18.6,65.6,22.3,71.4z"/>
</g>
</svg>
