<svg xmlns="http://www.w3.org/2000/svg" viewBox="0 0 92.36 84.81"><defs><style>.cls-1{isolation:isolate;}.cls-2{fill:#231f20;mix-blend-mode:multiply;}</style></defs><title>Asset 26</title><g class="cls-1"><g id="Layer_2" data-name="Layer 2"><g id="Illustrations"><path class="cls-2" d="M81.17,8.14a1.33,1.33,0,0,0-1.9,0l-8.54,8.54L80.06,26l8.54-8.54a1.33,1.33,0,0,0,0-1.9Z"/><path class="cls-2" d="M41.31,46.09A33.82,33.82,0,0,0,35.47,54L32.4,62l-3.5,3.5a1.65,1.65,0,0,0,2.34,2.34l3.5-3.5,8-3.07a33.82,33.82,0,0,0,7.86-5.84L78.17,27.91l-9.34-9.34Z"/><path class="cls-2" d="M92,7.55,89.19,4.78a1.33,1.33,0,0,0-1.9,0L84.45,7.62l4.67,4.67L92,9.45A1.33,1.33,0,0,0,92,7.55Z"/><path class="cls-2" d="M63.5,73.54H57.25V55l-4.81,4.72V73.54H21.18V12.07H52.44V28.8L57.25,24V12.07H63.5v5.69L69.26,12A5.77,5.77,0,0,0,63.5,6.3H21.16L5.21.25A3.85,3.85,0,0,0,0,3.85V63.28H0V81a3.84,3.84,0,0,0,5.2,3.6l13.89-5.25H63.5a5.77,5.77,0,0,0,5.77-5.77V43L63.5,48.73Z"/></g></g></g></svg>