<svg xmlns="http://www.w3.org/2000/svg" viewBox="0 0 92.07 92.34"><defs><style>.cls-1{fill:#231f20;}</style></defs><title>Asset 36</title><g id="Layer_2" data-name="Layer 2"><g id="Illustrations"><path class="cls-1" d="M90.31,35.76l-1.58-3.43-6,21.26H63.65s3.32,6,6.92,6h16.6l4.56-15.81C92.62,40.7,91.65,38.63,90.31,35.76Z"/><path class="cls-1" d="M1,78.13v9.41a1.92,1.92,0,0,0,1.93,1.92H24.05A1.92,1.92,0,0,0,26,87.54V78.13a28.62,28.62,0,0,1-12.5,2.67A28.66,28.66,0,0,1,1,78.13Z"/><path class="cls-1" d="M6.73,70.22H1.92A1.92,1.92,0,0,0,0,72.14v3.22l.45.29c3.27,2,8,3.23,13,3.23s9.74-1.18,13-3.23l.45-.29V72.14A1.92,1.92,0,0,0,25,70.22H20.2V68.3a3.86,3.86,0,0,0-3.85-3.85H10.58A3.86,3.86,0,0,0,6.73,68.3Zm9.62-1.92v1.92H10.58V68.3Z"/><path class="cls-1" d="M51.11,12.86c0,3.52-3.45,6.38-7.7,6.38s-7.69-2.86-7.69-6.38V6.38C35.72,2.86,39.16,0,43.41,0s7.7,2.86,7.7,6.38Z"/><path class="cls-1" d="M61.7,29.88c-2.29-4.36-5.05-7.6-11.2-8.34a70.24,70.24,0,0,0-18.06.31,9.61,9.61,0,0,0-8.18,7.75l-5.74,30A7.79,7.79,0,0,0,26,54.12l5.77-18.53C30.48,63.05,30,46,31.26,92.34a6.73,6.73,0,0,0,6.67-5.7l4.88-30.85,4.87,30.85a6.75,6.75,0,0,0,6.67,5.7C55.64,46,56.09,64,54.83,36.55,55.46,37.74,64.45,50,71.66,50H76S66.53,39.09,61.7,29.88Z"/></g></g></svg>