<?xml version="1.0" encoding="utf-8"?>
<!-- Generator: Adobe Illustrator 22.0.0, SVG Export Plug-In . SVG Version: 6.00 Build 0)  -->
<svg version="1.1" id="Layer_1" xmlns="http://www.w3.org/2000/svg" xmlns:xlink="http://www.w3.org/1999/xlink" x="0px" y="0px"
	 viewBox="0 0 116.8 82.9" style="enable-background:new 0 0 116.8 82.9;" xml:space="preserve">
<title>Asset 24</title>
<path d="M110.4,24.7c-6.1-10-15.6-18-26.2-21.8C73.9-0.6,62.4-1,51,2c-10.7,2.7-20.6,8.1-28.9,15.6C12.6,26.3,5.8,36.4,2.5,46.7
	c-2.3,7.1-3,13.2-2.2,18.4c0.7,4.5,2.1,7.6,4.3,9.4C6.4,76,3.3,51.4,31.9,27.9c6.4-5.3,14.4-8.4,22.3-10.5
	c8.2-2.1,17.3-1.3,24.5,1.2c7,2.4,13.3,7.7,17.3,14.5c5.3,8.9,6.4,21.7-2.7,30.3c-2.5,2.3-6.6,4.1-10,2.7c-2.9-1.2-4.6-4.6-3.5-7.4
	c2-5.1,9.4-3.9,9.4-3.9s-2.4-15-17.8-8.9c-10,4.4-16.3,25,5.4,35.1c14.4,5.6,25.5-2.1,31.2-8.8C114.9,63.9,122.6,44.8,110.4,24.7z"
	/>
</svg>
