<svg xmlns="http://www.w3.org/2000/svg" viewBox="0 0 97.82 95.78"><defs><style>.cls-1{fill:#231f20;}</style></defs><title>Asset 45</title><g id="Layer_2" data-name="Layer 2"><g id="Illustrations"><path class="cls-1" d="M77.44,95.78H4s7.31-17.53,21.41-21.54A20.46,20.46,0,0,1,36.7,74.1,14.89,14.89,0,0,1,51.56,59.92a14.47,14.47,0,0,1,9,3.07A18.21,18.21,0,0,1,76.42,53.8c13.65,0,21.4,9.15,21.4,21.6A20.58,20.58,0,0,1,77.44,95.78ZM14.73,89.67H77.44A14.56,14.56,0,0,0,91.71,75.4c0-8-4.76-15.48-15.29-15.48a12.33,12.33,0,0,0-11.9,9.48l-1.78,7.34-3.83-6.51A8.45,8.45,0,0,0,51.56,66a8.77,8.77,0,0,0-8.76,8.76v8.94l-4.58-2.61C37.69,80.82,25.74,74.47,14.73,89.67Z"/><path class="cls-1" d="M15.79,52.94A10.26,10.26,0,0,1,11.21,54a9.7,9.7,0,0,1-1.54-.13A32.7,32.7,0,0,0,19.39,69l4-4.61A26.49,26.49,0,0,1,15.79,52.94Z"/><path class="cls-1" d="M9.7,33.75a10.61,10.61,0,0,1,1.51-.12,10.26,10.26,0,0,1,4.61,1.08A27.64,27.64,0,0,1,33.63,17.54V11.19A33.74,33.74,0,0,0,9.7,33.75Z"/><path class="cls-1" d="M73.37,33.63l.46,0a33.77,33.77,0,0,0-23.9-22.46v6.35a27.62,27.62,0,0,1,18,17.65A10.2,10.2,0,0,1,73.37,33.63Z"/><path class="cls-1" d="M74.88,37.89a6.25,6.25,0,0,0-1.51-.19,6,6,0,0,0-6.12,6.12,6.12,6.12,0,1,0,7.63-5.93Z"/><path class="cls-1" d="M75.4,0a8.15,8.15,0,0,0-7.88,6.11H16a8.15,8.15,0,1,0,0,4.08H67.52A8.15,8.15,0,1,0,75.4,0ZM8.15,12.23a4.08,4.08,0,1,1,4.08-4.08A4.08,4.08,0,0,1,8.15,12.23Zm67.25,0a4.08,4.08,0,1,1,4.08-4.08A4.08,4.08,0,0,1,75.4,12.23Z"/><circle class="cls-1" cx="11.14" cy="43.86" r="6.09"/></g></g></svg>