<?xml version="1.0" encoding="utf-8"?>
<!-- Generator: Adobe Illustrator 22.0.0, SVG Export Plug-In . SVG Version: 6.00 Build 0)  -->
<svg version="1.1" id="Layer_1" xmlns="http://www.w3.org/2000/svg" xmlns:xlink="http://www.w3.org/1999/xlink" x="0px" y="0px"
	 viewBox="0 0 91 88.8" style="enable-background:new 0 0 91 88.8;" xml:space="preserve">
<title>Asset 52</title>
<g>
	<path d="M58.5,8.4c-0.1,0-19.9-8.2-19.9-8.2c-0.7-0.3-1.4-0.3-2.1,0c0,0-19.8,8.2-19.9,8.2c-1,0.4-1.6,1.5-1.6,2.5v48
		c0,1.1,0.7,2.1,1.7,2.6l19.7,8.1c0.1,0,0.5,0.2,1.1,0.2c0.6,0,1-0.2,1.1-0.2l19.7-8.1c1-0.4,1.7-1.4,1.7-2.6v-48
		C60,10,59.6,8.9,58.5,8.4z M37.6,5.8L50,10.9L37.6,16l-12.5-5.1L37.6,5.8z M20.6,15l14.2,5.8v42.1l-14.2-5.8V15z"/>
	<g>
		<g>
			<path d="M68.5,69.5h-9.2c-1,0-1.8-0.8-1.8-1.8c0-1,0.8-1.8,1.8-1.8h9.2c1,0,1.8,0.8,1.8,1.8C70.4,68.6,69.6,69.5,68.5,69.5z"/>
		</g>
		<g>
			<path d="M71.3,77.8H50.1c-1,0-1.8-0.8-1.8-1.8c0-1,0.8-1.8,1.8-1.8h21.2c1,0,1.8,0.8,1.8,1.8C73.1,76.9,72.3,77.8,71.3,77.8z"/>
		</g>
		<g>
			<path d="M21.5,77.8h-3.7c-1,0-1.8-0.8-1.8-1.8c0-1,0.8-1.8,1.8-1.8h3.7c1,0,1.8,0.8,1.8,1.8C23.4,76.9,22.5,77.8,21.5,77.8z"/>
		</g>
		<g>
			<path d="M30.7,77.8h-3.7c-1,0-1.8-0.8-1.8-1.8c0-1,0.8-1.8,1.8-1.8h3.7c1,0,1.8,0.8,1.8,1.8C32.6,76.9,31.8,77.8,30.7,77.8z"/>
		</g>
		<g>
			<path d="M40,77.8h-3.7c-1,0-1.8-0.8-1.8-1.8c0-1,0.8-1.8,1.8-1.8H40c1,0,1.8,0.8,1.8,1.8C41.8,76.9,41,77.8,40,77.8z"/>
		</g>
		<path d="M74.1,44.6h-9.3v5.5h5.5L83,83.3H8l5-12.6c1.2-3.2-0.1-6.3-2.8-8.5l0,0L0,88.8h91L74.1,44.6z"/>
	</g>
</g>
</svg>
