<svg xmlns="http://www.w3.org/2000/svg" viewBox="0 0 74.24 83.81"><defs><style>.cls-1{fill:#231f20;}</style></defs><title>Asset 46</title><g id="Layer_2" data-name="Layer 2"><g id="Illustrations"><path class="cls-1" d="M68.8,42.4a9.06,9.06,0,0,0-6.36-2.66c-5.38,0-11.92,4.27-25.34,4.38C23.67,44,17.17,39.74,11.8,39.74A9.06,9.06,0,0,0,5.44,42.4C-1.81,48.88.08,63,.65,71.68c0,.32,1.74,13,3.29,12.08,0,0,8.76-5.18,8.76-17.68,0-10,1.89-12.67,5.7-12.67,4,0,9.12,3.1,18.72,3.1s14.74-3.1,18.72-3.1c3.8,0,5.7,2.62,5.7,12.67,0,12.5,8.75,17.68,8.75,17.68,1.55.92,3.27-11.76,3.29-12.08C74.16,63,76.05,48.88,68.8,42.4Z"/><path class="cls-1" d="M20,28.92C25.7,33,27,36.73,27.29,39.53a54.55,54.55,0,0,0,9.81.91A53.87,53.87,0,0,0,47,39.52c.27-2.79,1.59-6.53,7.34-10.6,8.29-5.88,7.25-10.37,7.25-15S60.51,0,37.12,0,12.69,9.18,12.69,13.94,11.65,23,20,28.92Z"/></g></g></svg>