<svg xmlns="http://www.w3.org/2000/svg" viewBox="0 0 88.02 92.34"><defs><style>.cls-1{fill:#231f20;}</style></defs><title>Asset 28</title><g id="Layer_2" data-name="Layer 2"><g id="Illustrations"><path class="cls-1" d="M32.35,12.86c0,3.52-3.44,6.38-7.69,6.38S17,16.38,17,12.86V6.38C17,2.86,20.41,0,24.66,0s7.69,2.86,7.69,6.38Z"/><path class="cls-1" d="M42.6,29.6a9.63,9.63,0,0,0-8.19-7.75,78.18,78.18,0,0,0-20.72,0A9.61,9.61,0,0,0,5.5,29.6L0,58.68a7.79,7.79,0,0,0,7.45-5.52l5.06-16.61c-1.26,27.46-1.3,9.44,0,55.79a6.75,6.75,0,0,0,6.67-5.7l4.87-30.85,4.87,30.85a6.75,6.75,0,0,0,6.67,5.7c1.3-46.35,1.26-28.33,0-55.79l5,16.61a7.8,7.8,0,0,0,7.46,5.52Z"/><path class="cls-1" d="M81.45,24.24a15.44,15.44,0,1,1-6-15.47l4.19-4.06a21.14,21.14,0,1,0,7.89,16.45,20.74,20.74,0,0,0-.19-2.63Z"/><path class="cls-1" d="M66.05,31.74a3.32,3.32,0,0,1-2.34-1.06l-9.3-10.35a7.07,7.07,0,0,1,4.46-1.57A7.16,7.16,0,0,1,64.1,21l2.15,2.67L86.08,4.51a6.46,6.46,0,0,1,0,9.25l-17.6,17a3.31,3.31,0,0,1-2.31.94Z"/><path class="cls-1" d="M41.4,78.37v9.41a1.92,1.92,0,0,0,1.92,1.92H64.49a1.92,1.92,0,0,0,1.92-1.92V78.37A28.66,28.66,0,0,1,53.9,81,28.65,28.65,0,0,1,41.4,78.37Z"/><path class="cls-1" d="M47.17,70.46H42.36a1.92,1.92,0,0,0-1.92,1.92V75.6l.45.29c3.27,2,8,3.23,13,3.23s9.75-1.18,13-3.23l.45-.29V72.38a1.92,1.92,0,0,0-1.92-1.92H60.64V68.54a3.86,3.86,0,0,0-3.85-3.85H51a3.86,3.86,0,0,0-3.85,3.85Zm9.62-1.92v1.92H51V68.54Z"/></g></g></svg>