<svg xmlns="http://www.w3.org/2000/svg" viewBox="0 0 80.93 102.13"><defs><style>.cls-1{fill:#231f20;}</style></defs><title>Asset 31</title><g id="Layer_2" data-name="Layer 2"><g id="Illustrations"><path class="cls-1" d="M40.47,46.5A23.25,23.25,0,1,0,17.22,23.25,23.28,23.28,0,0,0,40.47,46.5ZM57.53,23.25A17.08,17.08,0,0,1,40.47,40.32h0V6.18h0A17.08,17.08,0,0,1,57.53,23.25Z"/><path class="cls-1" d="M77.84,58.57H3.09A3.09,3.09,0,0,0,0,61.66V99a3.09,3.09,0,0,0,3.09,3.1H77.84A3.09,3.09,0,0,0,80.93,99V61.66A3.09,3.09,0,0,0,77.84,58.57ZM6.18,64.75H39.1V95.94H6.18Z"/></g></g></svg>