<svg xmlns="http://www.w3.org/2000/svg" viewBox="0 0 137.71 81.58"><defs><style>.cls-1{fill:#231f20;}</style></defs><title>Asset 56</title><g id="Layer_2" data-name="Layer 2"><g id="Illustrations"><path class="cls-1" d="M40.71,65c-3.71-.69-5.18-.42-6.24-.21a1.08,1.08,0,0,1-1.28-1.06V36.78a4.56,4.56,0,1,0-9.11,0v14H18.32a9.71,9.71,0,0,0-9.67,9.68V69c0,.42-4.52,6.8-8.65,12.55H20.57a24.47,24.47,0,0,1,15-8.77c4.51-.71,9.27-.68,13.83-1C49.35,71.77,49.46,66.6,40.71,65Z"/><path class="cls-1" d="M117.14,0a24.52,24.52,0,0,1-15,8.77c-4.51.7-9.26.68-13.83,1,0,0-.11,5.17,8.64,6.79,3.71.69,5.18.41,6.25.21a1.07,1.07,0,0,1,1.27,1.06V44.8a4.56,4.56,0,0,0,9.11,0v-14h5.76a9.71,9.71,0,0,0,9.68-9.67V12.55c0-.43,4.51-6.81,8.64-12.55Z"/><path class="cls-1" d="M91.28,24.59H87.66l-.44-.89c-1-2-1.25-3.33-5.37-3.33H71c-4,0-4.51,1.39-5.47,3.55l-.3.67H46.44c-2.6,0-4.71.22-4.71,4.7V55.14c0,2,2.74,5.17,6.74,5.17H89.24c4.6,0,6.74-3.82,6.74-5.17V29.29C96,26.69,96,24.59,91.28,24.59ZM50.28,33H46.39c-.51,0-.88-.23-.88-.55v-3.9H53.3c.51,0,.88.23.88.54A3.91,3.91,0,0,1,50.28,33Zm25,22A14.14,14.14,0,1,1,89.42,40.9,14.15,14.15,0,0,1,75.28,55Z"/><path class="cls-1" d="M75.28,29.53A11.37,11.37,0,1,0,86.65,40.9,11.38,11.38,0,0,0,75.28,29.53ZM69.13,46.05A8,8,0,0,1,80.39,34.8,9.65,9.65,0,0,0,69.13,46.05Z"/></g></g></svg>