<?xml version="1.0" encoding="utf-8"?>
<!-- Generator: Adobe Illustrator 22.0.0, SVG Export Plug-In . SVG Version: 6.00 Build 0)  -->
<svg version="1.1" id="Layer_1" xmlns="http://www.w3.org/2000/svg" xmlns:xlink="http://www.w3.org/1999/xlink" x="0px" y="0px"
	 viewBox="0 0 90.5 91.7" style="enable-background:new 0 0 90.5 91.7;" xml:space="preserve">
<title>Asset 24</title>
<path d="M87,5.7L87,5.7c-1.2-0.7-2.6-1.5-5.3-1.5c-2.7,0-4.1,0.8-5.3,1.5l0,0c-1,0.6-1.8,1-3.5,1s-2.5-0.5-3.5-1l0,0
	c-1.2-0.7-2.6-1.5-5.3-1.5c-2.7,0-4.1,0.8-5.3,1.5l0,0c-1,0.6-1.8,1-3.5,1s-2.5-0.5-3.5-1l0,0c-1.2-0.7-2.6-1.5-5.3-1.5v3.3
	c1.7,0,2.5,0.5,3.5,1l0,0c1.2,0.7,2.6,1.5,5.3,1.5s4.1-0.8,5.3-1.5l0,0c1-0.6,1.8-1,3.5-1c1.7,0,2.5,0.5,3.5,1l0,0
	c1.2,0.7,2.6,1.5,5.3,1.5c2.7,0,4.1-0.8,5.3-1.5l0,0c1-0.6,1.8-1,3.5-1s2.5,0.5,3.5,1l0,0c1.2,0.7,2.6,1.5,5.3,1.5V6.7
	C88.8,6.7,88,6.3,87,5.7z"/>
<path d="M87,14.5c-1.2-0.7-2.6-1.5-5.3-1.5c-2.7,0-4.1,0.8-5.3,1.5l0,0c-1,0.6-1.8,1-3.5,1s-2.5-0.5-3.5-1l0,0
	c-1.2-0.7-2.6-1.5-5.3-1.5c-2.7,0-4.1,0.8-5.3,1.5l0,0c-1,0.6-1.8,1-3.5,1s-2.5-0.5-3.5-1l0,0c-1.2-0.7-2.6-1.5-5.3-1.5v3.3
	c1.7,0,2.5,0.5,3.5,1l0,0c1.2,0.7,2.6,1.5,5.3,1.5s4.1-0.8,5.3-1.5l0,0c1-0.6,1.8-1,3.5-1c1.7,0,2.5,0.5,3.5,1l0,0
	c1.2,0.7,2.6,1.5,5.3,1.5c2.7,0,4.1-0.8,5.3-1.5l0,0c1-0.6,1.8-1,3.5-1s2.5,0.5,3.5,1l0,0c1.2,0.7,2.6,1.5,5.3,1.5v-3.3
	C88.8,15.6,88,15.1,87,14.5L87,14.5z"/>
<path d="M87,22.8c-1.2-0.7-2.6-1.5-5.3-1.5c-2.7,0-4.1,0.8-5.3,1.5l0,0c-1,0.6-1.8,1-3.5,1s-2.5-0.5-3.5-1l0,0
	c-1.2-0.7-2.6-1.5-5.3-1.5c-2.7,0-4.1,0.8-5.3,1.5l0,0c-1,0.6-1.8,1-3.5,1s-2.5-0.5-3.5-1l0,0c-1.2-0.7-2.6-1.5-5.3-1.5v3.3
	c1.7,0,2.5,0.5,3.5,1l0,0c1.2,0.7,2.6,1.5,5.3,1.5s4.1-0.8,5.3-1.5l0,0c1-0.6,1.8-1,3.5-1c1.7,0,2.5,0.5,3.5,1l0,0
	c1.2,0.7,2.6,1.5,5.3,1.5c2.7,0,4.1-0.8,5.3-1.5l0,0c1-0.6,1.8-1,3.5-1s2.5,0.5,3.5,1l0,0c1.2,0.7,2.6,1.5,5.3,1.5v-3.3
	C88.8,23.9,88,23.4,87,22.8L87,22.8z"/>
<path d="M87,31.7c-1.2-0.7-2.6-1.5-5.3-1.5c-2.7,0-4.1,0.8-5.3,1.5l0,0c-1,0.6-1.8,1-3.5,1s-2.5-0.5-3.5-1l0,0
	c-1.2-0.7-2.6-1.5-5.3-1.5c-2.7,0-4.1,0.8-5.3,1.5l0,0c-1,0.6-1.8,1-3.5,1s-2.5-0.5-3.5-1l0,0c-1.2-0.7-2.6-1.5-5.3-1.5v3.3
	c1.7,0,2.5,0.5,3.5,1l0,0c1.2,0.7,2.6,1.5,5.3,1.5s4.1-0.8,5.3-1.5l0,0c1-0.6,1.8-1,3.5-1c1.7,0,2.5,0.5,3.5,1l0,0
	c1.2,0.7,2.6,1.5,5.3,1.5c2.7,0,4.1-0.8,5.3-1.5l0,0c1-0.6,1.8-1,3.5-1s2.5,0.5,3.5,1l0,0c1.2,0.7,2.6,1.5,5.3,1.5v-3.3
	C88.8,32.7,88,32.3,87,31.7L87,31.7z"/>
<path d="M33.8,51.4c0.8-1.2,1.7-2.6,1.7-5.3h-3.7c0,1.7-0.5,2.5-1.1,3.5l0,0c-0.8,1.2-1.7,2.6-1.7,5.3s0.9,4.1,1.7,5.3l0,0
	c0.6,1,1.1,1.8,1.1,3.5s-0.5,2.5-1.1,3.5l0,0c-0.8,1.2-1.7,2.6-1.7,5.3c0,2.7,0.9,4.1,1.7,5.3l0,0c0.6,1,1.1,1.8,1.1,3.5
	s-0.5,2.5-1.1,3.5l0,0C29.9,86,29,87.4,29,90.1h3.7c0-1.7,0.5-2.5,1.1-3.5l0,0c0.8-1.2,1.7-2.6,1.7-5.3c0-2.7-0.9-4.1-1.7-5.3l0,0
	c-0.6-1-1.1-1.8-1.1-3.5s0.5-2.5,1.1-3.5l0,0c0.8-1.2,1.7-2.6,1.7-5.3s-0.9-4.1-1.7-5.3l0,0c-0.6-1-1.1-1.8-1.1-3.5
	C32.7,53.2,33.1,52.4,33.8,51.4L33.8,51.4z"/>
<path d="M25.1,51.4c0.7-1.2,1.5-2.6,1.5-5.3h-3.3c0,1.7-0.5,2.5-1,3.5l0,0c-0.7,1.2-1.5,2.6-1.5,5.3s0.8,4.1,1.5,5.3l0,0
	c0.6,1,1,1.8,1,3.5s-0.5,2.5-1,3.5l0,0c-0.7,1.2-1.5,2.6-1.5,5.3c0,2.7,0.8,4.1,1.5,5.3l0,0c0.6,1,1,1.8,1,3.5s-0.5,2.5-1,3.5l0,0
	c-0.7,1.2-1.5,2.6-1.5,5.3H24c0-1.7,0.5-2.5,1-3.5l0,0c0.7-1.2,1.5-2.6,1.5-5.3c0-2.7-0.8-4.1-1.5-5.3l0,0c-0.6-1-1-1.8-1-3.5
	s0.5-2.5,1-3.5l0,0c0.7-1.2,1.5-2.6,1.5-5.3s-0.8-4.1-1.5-5.3l0,0c-0.6-1-1-1.8-1-3.5S24.5,52.4,25.1,51.4L25.1,51.4z"/>
<path d="M16.7,51.4c0.8-1.2,1.7-2.6,1.7-5.3h-3.7c0,1.7-0.5,2.5-1.1,3.5l0,0c-0.8,1.2-1.7,2.6-1.7,5.3s0.9,4.1,1.7,5.3l0,0
	c0.6,1,1.1,1.8,1.1,3.5s-0.5,2.5-1.1,3.5l0,0c-0.8,1.2-1.7,2.6-1.7,5.3c0,2.7,0.9,4.1,1.7,5.3l0,0c0.6,1,1.1,1.8,1.1,3.5
	s-0.5,2.5-1.1,3.5l0,0c-0.8,1.2-1.7,2.6-1.7,5.3h3.7c0-1.7,0.5-2.5,1.1-3.5l0,0c0.8-1.2,1.7-2.6,1.7-5.3c0-2.7-0.9-4.1-1.7-5.3l0,0
	c-0.6-1-1.1-1.8-1.1-3.5s0.5-2.5,1.1-3.5l0,0c0.8-1.2,1.7-2.6,1.7-5.3s-0.9-4.1-1.7-5.3l0,0c-0.6-1-1.1-1.8-1.1-3.5
	C15.5,53.2,16,52.4,16.7,51.4L16.7,51.4z"/>
<path d="M7.9,51.4c0.7-1.2,1.5-2.6,1.5-5.3H6.1c0,1.7-0.5,2.5-1,3.5l0,0c-0.7,1.2-1.5,2.6-1.5,5.3s0.8,4.1,1.5,5.3l0,0
	c0.6,1,1,1.8,1,3.5s-0.5,2.5-1,3.5l0,0c-0.7,1.2-1.5,2.6-1.5,5.3c0,2.7,0.8,4.1,1.5,5.3l0,0c0.6,1,1,1.8,1,3.5s-0.5,2.5-1,3.5l0,0
	c-0.7,1.2-1.5,2.6-1.5,5.3h3.3c0-1.7,0.5-2.5,1-3.5l0,0c0.7-1.2,1.5-2.6,1.5-5.3c0-2.7-0.8-4.1-1.5-5.3l0,0c-0.6-1-1-1.8-1-3.5
	s0.5-2.5,1-3.5l0,0c0.7-1.2,1.5-2.6,1.5-5.3s-0.8-4.1-1.5-5.3l0,0c-0.6-1-1-1.8-1-3.5C6.9,53.2,7.3,52.4,7.9,51.4L7.9,51.4z"/>
<path d="M42.6,0H0v42.6h42.6V0z M5.4,37.2L37.2,5.4v31.8l0,0H5.4L5.4,37.2z"/>
<path d="M82.4,47.7c-10-10-26.3-10-36.4,0c-10,10-10,26.3,0,36.4c10,10,26.3,10,36.4,0C92.4,74.1,92.4,57.8,82.4,47.7z M49.7,51.5
	c8-8,21-8,29,0c0.1,0.1,0.1,0.1,0.2,0.2l-29,28.9c-0.1-0.1-0.1-0.1-0.2-0.2C41.7,72.4,41.7,59.5,49.7,51.5z"/>
</svg>
