<?xml version="1.0" encoding="utf-8"?>
<!-- Generator: Adobe Illustrator 22.0.0, SVG Export Plug-In . SVG Version: 6.00 Build 0)  -->
<svg version="1.1" id="Layer_1" xmlns="http://www.w3.org/2000/svg" xmlns:xlink="http://www.w3.org/1999/xlink" x="0px" y="0px"
	 viewBox="0 0 108.8 81.4" style="enable-background:new 0 0 108.8 81.4;" xml:space="preserve">
<title>Asset 24</title>
<g>
	<path d="M108.6,40.5C108.4,40.1,87.9,0,54.3,0C36.5,0,22.8,10.6,14.4,19.5C5.2,29.3,0,39.4,0,40.7c0,1.9,20.5,40.7,54.3,40.7
		c33.2,0,54.1-40.1,54.3-40.5l0.1-0.2L108.6,40.5z M98.2,44.3c-1.9,3-5.1,7.6-9.2,12C78.4,67.8,66.7,73.7,54.3,73.9
		c-12.4-0.2-24-6.1-34.4-17.4c-4.6-5.1-7.8-9.7-9.2-12c-0.9-1.4-1.7-2.7-2.2-3.6c0.7-1.2,1.4-2.5,2.2-3.6c1.9-3,5.1-7.5,9.2-12
		c10.5-11.4,22-17.3,34.4-17.5C66.7,7.8,78.3,13.7,88.8,25c4.6,5.1,7.8,9.7,9.2,12c0.7,1.1,1.3,2.1,1.8,2.9c0.2,0.3,0.3,0.5,0.5,0.8
		C99.6,41.9,98.9,43.2,98.2,44.3z"/>
	<path d="M54.4,14.3c-14.4,0-26.1,11.8-26.1,26.4c0,14.6,11.7,26.4,26.1,26.4c14.3,0,26.1-11.8,26.1-26.4
		C80.5,26.2,68.8,14.3,54.4,14.3z M42.9,26.6c1.9,0,3.5,1.6,3.5,3.5s-1.5,3.5-3.5,3.5c-1.9,0-3.5-1.6-3.5-3.5S41,26.6,42.9,26.6z
		 M54.4,60.5c-10.8,0-19.6-8.9-19.6-19.8c0-2.2,0.4-4.3,1-6.3c1.4,2.4,3.9,4,6.7,4.1c-0.1,0.7-0.2,1.5-0.2,2.2
		c0,6.8,5.4,12.2,12.1,12.2c6.7,0.1,12.1-5.4,12.1-12.2s-5.4-12.2-12.1-12.2c-1.1,0-2.2,0.2-3.2,0.4c-0.4-2.8-2.1-5.2-4.5-6.4
		c2.4-1,5-1.6,7.7-1.6c10.8,0,19.6,8.9,19.6,19.8C74,51.6,65.2,60.5,54.4,60.5z"/>
</g>
</svg>
