<?xml version="1.0" encoding="utf-8"?>
<!-- Generator: Adobe Illustrator 22.0.0, SVG Export Plug-In . SVG Version: 6.00 Build 0)  -->
<svg version="1.1" id="Layer_1" xmlns="http://www.w3.org/2000/svg" xmlns:xlink="http://www.w3.org/1999/xlink" x="0px" y="0px"
	 viewBox="0 0 88.5 88.5" style="enable-background:new 0 0 88.5 88.5;" xml:space="preserve">
<title>Asset 55</title>
<g>
	<path d="M40.6,63.5l-1.8,0.8V31.9l27.7-11.4v7.1c0,3.1,2.5,5.5,5.5,5.5h0c0,0,0-16.3,0-16.8c0-1.2-0.7-2.1-1.7-2.6
		C70,13.8,37,0.2,37,0.2c-0.7-0.3-1.4-0.3-2.1,0L1.7,13.9C0.5,14.4,0,15.5,0,16.4v38.3c0,1.1,0.7,2.1,1.7,2.6
		c0,0,33.2,13.7,33.3,13.7c0.6,0.3,1.4,0.2,2,0c0.1,0,9.1-3.8,9.1-3.8v0C46.1,64.3,43.2,62.4,40.6,63.5z M33.2,64.2L5.5,52.8V20.6
		l27.7,11.4V64.2z M35.9,27.1L10,16.4L35.9,5.8l25.9,10.7L35.9,27.1z"/>
	<path d="M83,57.1v-6.5c0-7.6-6.2-13.8-13.8-13.8s-13.8,6.2-13.8,13.8v6.5h-5.5V82c0,3.6,2.9,6.5,6.5,6.5H82c3.6,0,6.5-2.9,6.5-6.5
		V57.1H83z M69.1,77.4c-2.4,0-4.3-1.9-4.3-4.3c0-2.4,1.9-4.3,4.3-4.3c2.4,0,4.3,1.9,4.3,4.3C73.4,75.5,71.5,77.4,69.1,77.4z
		 M77.4,57.1H60.8v-6.5c0-4.6,3.7-8.3,8.3-8.3s8.3,3.7,8.3,8.3V57.1z"/>
</g>
</svg>
