<svg xmlns="http://www.w3.org/2000/svg" viewBox="0 0 88.49 88.49"><defs><style>.cls-1{fill:#231f20;}</style></defs><title>Asset 42</title><g id="Layer_2" data-name="Layer 2"><g id="Illustrations"><path class="cls-1" d="M68.89,79a29.67,29.67,0,0,1-14.84,4,29.28,29.28,0,0,1-13.8-3.38c-2.62-1.37-7.65,1.66-7.65,1.66h0a35.31,35.31,0,0,0,40.22,1.84l5,5.25L81.5,70.62,63.64,73.56Z"/><path class="cls-1" d="M51.62,66.37V6.45A6.46,6.46,0,0,0,45.17,0H6.45A6.45,6.45,0,0,0,0,6.45V66.37a6.46,6.46,0,0,0,6.45,6.45H45.17A6.47,6.47,0,0,0,51.62,66.37ZM46.09,10.58V30L30.94,20.28ZM25.81,17,7.9,5.53H43.72Zm-5.13,3.29L5.53,30V10.58Zm5.13,3.28L43.72,35H7.9ZM5.53,66.37V40.56H46.09V66.37a.93.93,0,0,1-.92.92H6.45A.92.92,0,0,1,5.53,66.37Z"/><path class="cls-1" d="M82,34.1H65.44A6.47,6.47,0,0,0,59,40.56V57.15a6.46,6.46,0,0,0,6.45,6.45H82a6.46,6.46,0,0,0,6.46-6.45V40.56A6.47,6.47,0,0,0,82,34.1Zm.93,23a.93.93,0,0,1-.93.92H65.44a.92.92,0,0,1-.92-.92V40.56a.93.93,0,0,1,.92-.93H82a.93.93,0,0,1,.93.93Z"/><path class="cls-1" d="M82,0H65.44A6.46,6.46,0,0,0,59,6.45V23a6.47,6.47,0,0,0,6.45,6.46H82A6.47,6.47,0,0,0,88.49,23V6.45A6.46,6.46,0,0,0,82,0ZM83,23A.93.93,0,0,1,82,24H65.44a.93.93,0,0,1-.92-.93V6.45a.92.92,0,0,1,.92-.92H82a.93.93,0,0,1,.93.92Z"/><rect class="cls-1" x="11.06" y="47.01" width="27.65" height="5.53"/><rect class="cls-1" x="11.06" y="56.23" width="16.59" height="5.53"/></g></g></svg>