<svg xmlns="http://www.w3.org/2000/svg" viewBox="0 0 92.3 87.41"><defs><style>.cls-1{fill:#231f20;}</style></defs><title>Asset 32</title><g id="Layer_2" data-name="Layer 2"><g id="Illustrations"><path class="cls-1" d="M79.33,11,63,27.39A23,23,0,0,1,58.51,62.6a2.74,2.74,0,0,0-1.27,1.55l-8,23.26,23.79-7a3.36,3.36,0,0,0,1-.54A46.14,46.14,0,0,0,79.33,11Zm-21,67.68,2.82-8.27,5.65,5.77Zm8.71-10.5-2.7-2.76a28.74,28.74,0,0,0,5.06-39.28l2.73-2.74a32.54,32.54,0,0,1-5.09,44.78Zm5.4,5.51L69.77,71A36.38,36.38,0,0,0,74.91,20.7l2.79-2.79a40.4,40.4,0,0,1-5.23,55.82Z"/><path class="cls-1" d="M75.57,7.41A11.61,11.61,0,0,0,59.15,23.83c.22.23.46.43.69.63L76.2,8.1C76,7.87,75.79,7.63,75.57,7.41Z"/><path class="cls-1" d="M13,76.37,29.31,60a23.06,23.06,0,0,1,4.48-35.22,2.74,2.74,0,0,0,1.27-1.55L43,0,19.23,7a3.51,3.51,0,0,0-1,.54A46.15,46.15,0,0,0,13,76.37Zm21-67.68L31.11,17,25.47,11.2ZM25.23,19.2,27.92,22a28.73,28.73,0,0,0-5.05,39.28L20.13,64a32.54,32.54,0,0,1,5.1-44.77Zm-5.41-5.52,2.71,2.77a36.4,36.4,0,0,0-5.15,50.27L14.6,69.5a40.38,40.38,0,0,1,5.22-55.82Z"/><path class="cls-1" d="M16.72,80A11.61,11.61,0,0,0,33.14,63.58c-.22-.22-.45-.42-.69-.62L16.1,79.31C16.3,79.55,16.5,79.78,16.72,80Z"/></g></g></svg>