<?xml version="1.0" encoding="utf-8"?>
<!-- Generator: Adobe Illustrator 22.0.0, SVG Export Plug-In . SVG Version: 6.00 Build 0)  -->
<svg version="1.1" id="Layer_1" xmlns="http://www.w3.org/2000/svg" xmlns:xlink="http://www.w3.org/1999/xlink" x="0px" y="0px"
	 viewBox="0 0 105.4 105.3" style="enable-background:new 0 0 105.4 105.3;" xml:space="preserve">
<title>Asset 24</title>
<g>
	<path d="M75.8,46.3c-16.3,0-29.5,13.2-29.5,29.5c0,16.3,13.3,29.5,29.5,29.5c16.3,0,29.5-13.2,29.5-29.5
		C105.4,59.6,92.1,46.3,75.8,46.3z M54.3,75.8c0-11.8,9.6-21.5,21.5-21.5c4.5,0,8.6,1.4,12.1,3.7L58,87.9
		C55.7,84.4,54.3,80.3,54.3,75.8z M75.8,97.3c-4.5,0-8.6-1.4-12.1-3.7l29.8-29.8c2.3,3.4,3.7,7.6,3.7,12.1
		C97.3,87.7,87.7,97.3,75.8,97.3z"/>
	<path d="M37,81.5H6V6h55.9v30.1c0,3.3,2.7,6,6,6V0H0v87.5h43C43,84.2,40.4,81.5,37,81.5z"/>
	<path d="M53.9,14.6H14.7v24.5h39.2V14.6z M48,21.2c0,1.5-1.2,2.7-2.8,2.7c-1.5,0-2.8-1.2-2.8-2.7s1.2-2.7,2.8-2.7
		C46.8,18.4,48,19.7,48,21.2z M43.4,35.2H18.9l7.6-13.5l5.3,11l6-4.8L43.4,35.2z"/>
	<rect x="14.2" y="46.4" width="27.1" height="5.6"/>
	<rect x="14.2" y="55.3" width="19.4" height="5.6"/>
	<rect x="14.2" y="64.1" width="27.1" height="5.6"/>
</g>
</svg>
