<svg xmlns="http://www.w3.org/2000/svg" viewBox="0 0 91.7 91.7"><defs><style>.cls-1{fill:#231f20;}</style></defs><title>Asset 22</title><g id="Layer_2" data-name="Layer 2"><g id="Illustrations"><path class="cls-1" d="M37,54.29l1.14-1.52H19.69L14,32.78l-.64,1.29c-1.51,3-2.51,5-1.59,7.93l4.45,15.51H32.29C34.68,57.51,35.66,56.16,37,54.29Z"/><path class="cls-1" d="M58.34,64c1.71-8.94,3.39-18,4.4-23.47a3,3,0,0,0-4-3.35L30.88,47.29c6.77,2.57,9.79,2,18.12-.44l3.77-1.11L50.38,58.31a1.46,1.46,0,0,1-1,1L32.06,63,26.83,90.44c6.58,0,9.58-11.72,12-21.63a1.13,1.13,0,0,1,.95-1c.38-.06,15.46-1,15.46-1A3.53,3.53,0,0,0,58.34,64Z"/><path class="cls-1" d="M64.84,54A52,52,0,0,0,63,70.76c-20.34,0-20.29,5.7-20.29,5.7H67.28l6.83-36.77S68.48,41.62,64.84,54Z"/><path class="cls-1" d="M45.85,0,0,20.68v71A5.74,5.74,0,0,0,5.73,86V24.51l40.12-18"/><path class="cls-1" d="M45.85,0,0,20.68v71A5.74,5.74,0,0,0,5.73,86V24.51l40.12-18L86,24.51V86A5.75,5.75,0,0,0,91.7,91.7v-71Z"/><path class="cls-1" d="M66,30.17c-.51,2.7-3.43,4.42-6.51,3.83s-5.17-3.24-4.66-5.94l.94-5c.51-2.7,3.42-4.42,6.51-3.84s5.17,3.25,4.66,5.95Z"/><path class="cls-1" d="M66.61,85.3a25.43,25.43,0,0,0-5.48-1.7l-.65-3a.87.87,0,0,0-.85-.69H56.26a.88.88,0,0,0-.85.69l-.65,3a25.77,25.77,0,0,0-5.48,1.7A18.38,18.38,0,0,0,42.23,91a18.46,18.46,0,0,0,9-1.23,18.88,18.88,0,0,0,6.48-4.15h.55a18.84,18.84,0,0,0,6.49,4.15,18.46,18.46,0,0,0,9,1.23A18.46,18.46,0,0,0,66.61,85.3Z"/></g></g></svg>