<svg xmlns="http://www.w3.org/2000/svg" viewBox="0 0 77.18 87.95"><defs><style>.cls-1{fill:#231f20;}</style></defs><title>Asset 50</title><g id="Layer_2" data-name="Layer 2"><g id="Illustrations"><path class="cls-1" d="M65.68,18.82a7.38,7.38,0,1,0-7.37-7.38A7.38,7.38,0,0,0,65.68,18.82Zm0-10.14a2.77,2.77,0,1,1-2.76,2.76A2.77,2.77,0,0,1,65.68,8.68Z"/><circle class="cls-1" cx="50.01" cy="4.07" r="3.69"/><circle class="cls-1" cx="31.58" cy="8.68" r="3.69"/><path class="cls-1" d="M75.56,78.51,61.71,64.66A31.29,31.29,0,0,0,60.19,22l-.13.14a6,6,0,0,0-.61,7.61,26.28,26.28,0,0,1,2.36,4.37A25.83,25.83,0,0,1,41.63,69.76,25.84,25.84,0,0,1,12.22,44.2a25.57,25.57,0,0,1,2-10.05,26.28,26.28,0,0,1,2.36-4.37A6,6,0,0,0,16,22.17L15.87,22A31.36,31.36,0,0,0,6.69,44.2a31,31,0,0,0,24.6,30.63,31.42,31.42,0,0,0,21.79-3.16L67.59,86.19a5.68,5.68,0,0,0,6.14,1.36,5.54,5.54,0,0,0,1.83-9Z"/><path class="cls-1" d="M49.16,28.37a3.24,3.24,0,0,1-1.3-3.27L49.71,16H26.35L28.2,25.1a3.24,3.24,0,0,1-1.3,3.27,19.36,19.36,0,1,0,22.26,0ZM30.08,32.89A8.73,8.73,0,0,0,33.62,24l-.5-2.43h9.82L42.44,24A8.74,8.74,0,0,0,46,32.89h0a13.87,13.87,0,0,1,5.4,7.75l-2.23,1A10.53,10.53,0,0,1,38.6,40.59a10.53,10.53,0,0,0-10.9-.91l-3.16,1.58A13.82,13.82,0,0,1,30.08,32.89Z"/><path class="cls-1" d="M7.3,1.84h0C6.09,5.45,9.1,8.42,9.1,8.42s3.16-3,2.17-6.45C10.91.73,10.19,0,9.34,0S7.74.65,7.3,1.84Z"/><path class="cls-1" d="M.81,7.85h0c2.47,2.83,6.6,1.73,6.6,1.73s-1-4.23-4.51-5.09c-1.25-.32-2.22,0-2.67.68S0,6.87.81,7.85Z"/><path class="cls-1" d="M17.51,7.85h0c-2.36,2.83-6.6,1.73-6.6,1.73s1-4.23,4.5-5.09c1.26-.32,2.22,0,2.68.68S18.32,6.87,17.51,7.85Z"/><path class="cls-1" d="M11,19.29h0c1.3-3.39-1.8-6.58-1.8-6.58s-3.15,3-2.16,6.45c.36,1.24,1.07,1.94,1.93,2S10.57,20.49,11,19.29Z"/><path class="cls-1" d="M17.51,13.28h0c-2.36-2.83-6.6-1.73-6.6-1.73s1,4.23,4.5,5.1c1.26.31,2.22,0,2.68-.68S18.32,14.26,17.51,13.28Z"/><path class="cls-1" d="M.81,13.28h0c2.4-2.83,6.6-1.73,6.6-1.73s-1,4.23-4.51,5.1C1.65,17,.68,16.69.23,16S0,14.26.81,13.28Z"/></g></g></svg>