<svg xmlns="http://www.w3.org/2000/svg" viewBox="0 0 91.38 92.34"><defs><style>.cls-1{fill:#231f20;}</style></defs><title>Asset 33</title><g id="Layer_2" data-name="Layer 2"><g id="Illustrations"><path class="cls-1" d="M15.39,36.55H6.73A6.74,6.74,0,0,1,0,29.82V0H29.82a6.74,6.74,0,0,1,6.73,6.73v9.62H30.78V6.73a1,1,0,0,0-1-1h-24V29.82a1,1,0,0,0,1,1h8.66Z"/><path class="cls-1" d="M33.67,65.41H25a6.74,6.74,0,0,1-6.73-6.73V19.24H57.72A6.74,6.74,0,0,1,64.45,26v9.62H58.68V26a1,1,0,0,0-1-1H24.05V58.68a1,1,0,0,0,1,1h8.66Z"/><path class="cls-1" d="M84.65,38.48H37.52V85.61a6.74,6.74,0,0,0,6.73,6.73H91.38V45.21A6.74,6.74,0,0,0,84.65,38.48ZM81.46,61.27l-18.54,18a4,4,0,0,1-5.72-.16l-12-13a8,8,0,0,1,11.3.45l3.79,4.11L81.13,50.46a7.32,7.32,0,0,1,.33,10.81Z"/></g></g></svg>