<?xml version="1.0" encoding="utf-8"?>
<!-- Generator: Adobe Illustrator 22.0.0, SVG Export Plug-In . SVG Version: 6.00 Build 0)  -->
<svg version="1.1" id="Layer_1" xmlns="http://www.w3.org/2000/svg" xmlns:xlink="http://www.w3.org/1999/xlink" x="0px" y="0px"
	 viewBox="0 0 115.3 83.7" style="enable-background:new 0 0 115.3 83.7;" xml:space="preserve">
<title>Asset 24</title>
<g>
	<path d="M11.9,44C13.4,44,11.9,44,11.9,44c0,0,4.2,0,5.8,0c1.5,0,1.9-1.2,1.9-1.9l0-11.1l10,0L14.8,5L0,31l10,0l0,11.1
		C10,42.8,10.4,44,11.9,44z"/>
	<path d="M113.9,12.5c0,0-29.7-12.3-29.7-12.3c-0.6-0.2-1.2-0.2-1.8,0c0,0-29.7,12.2-29.7,12.3c-1.2,0.5-1.4,1.6-1.5,2.2v17.1
		l-0.5-0.2c-0.5-0.2-1-0.2-1.5,0c0,0-19.7,8-19.7,8c-0.9,0.3-1.3,1.1-1.3,1.9c0,0,0,14.5,0,14.5l-2.5-1c-0.4-0.2-0.8-0.2-1.2,0
		c0,0-13.2,5.3-13.2,5.3c-0.6,0.2-1,0.8-1,1.5c0,0.6,0,15.2,0,15.2c0,0.6,0.4,1.2,1,1.5c0,0,13.2,5.3,13.2,5.3
		c0.5,0.2,0.9,0.1,1.2,0c0.1,0,13.2-5.3,13.2-5.3c0.6-0.2,1-0.8,1-1.5v-6.6c0,0,9.3,3.8,9.4,3.9c0.5,0.2,0.9,0.2,1.4,0
		c0,0,19.9-8.2,19.9-8.2c0.7-0.3,1.2-1,1.2-1.8v-5.4c0,0,10.6,4.4,10.7,4.4c0.7,0.3,1.2,0.2,1.7,0c0,0,29.6-12.3,29.6-12.3
		c0.9-0.4,1.5-1.2,1.5-2.2V14.6C115.3,13.9,114.9,12.9,113.9,12.5z M16,61.6l9.1-3.7l9.1,3.7l-9.1,3.8L16,61.6z M50,35.4l14.6,5.9
		l-14.6,6l-14.6-6L50,35.4z M83.3,4.9l23.4,9.7l-23.4,9.6l-23.5-9.6L83.3,4.9z M13.5,63.9l5.7,2.4l4.3,1.8v11.7l-10.1-4.1V63.9z
		 M39.9,61.6c0-0.4-0.2-1.2-1-1.5c-0.1,0-6.8-2.8-6.8-2.8V44.3l8.6,3.6l7.3,3v18.5L39.9,66C39.9,66,39.9,61.8,39.9,61.6z M71.8,41.3
		C71.8,41.3,71.8,41.3,71.8,41.3c0-0.2,0-0.3-0.1-0.4c0,0,0-0.1,0-0.1c0-0.1-0.1-0.3-0.1-0.4c0,0,0,0,0-0.1
		c-0.1-0.1-0.1-0.2-0.2-0.3c0,0,0,0,0,0c-0.1-0.1-0.2-0.2-0.3-0.3c0,0,0,0,0,0c0,0,0,0,0,0c-0.1-0.1-0.2-0.1-0.3-0.2L56,33.6V18.1
		l25,10.2v29.1l-9.2-3.8L71.8,41.3C71.8,41.3,71.8,41.3,71.8,41.3z"/>
</g>
</svg>
