<svg xmlns="http://www.w3.org/2000/svg" viewBox="0 0 74.72 92.11"><defs><style>.cls-1{fill:#231f20;}</style></defs><title>Asset 37</title><g id="Layer_2" data-name="Layer 2"><g id="Illustrations"><path class="cls-1" d="M39.44.43a5.8,5.8,0,0,0-4.37,0L13.8,9.13V36.58l21.27,8.7a5.8,5.8,0,0,0,4.37,0l21.28-8.7V9.13ZM37.26,5.77l13,5.3-13,5.3-12.95-5.3Zm-17.69,9.6,14.8,6.05V38.76L19.57,32.7ZM40.14,38.76V21.42L55,15.37V32.7Z"/><path class="cls-1" d="M63.1,48.94C54.5,63.59,51,78.47,37.36,78.47S20.22,63.59,11.62,48.94C7.67,42.2,0,43.13,0,43.13l18.26,49H56.45l18.27-49S67.05,42.2,63.1,48.94Z"/><path class="cls-1" d="M37.36,73.55c5.12,0,9.27-3.44,9.27-7.69v-8.2c0-4.24-4.15-7.68-9.27-7.68s-9.27,3.44-9.27,7.68v8.2C28.09,70.11,32.24,73.55,37.36,73.55Z"/></g></g></svg>