<svg xmlns="http://www.w3.org/2000/svg" viewBox="0 0 93.09 93.18"><defs><style>.cls-1{fill:#231f20;}</style></defs><title>Asset 23</title><g id="Layer_2" data-name="Layer 2"><g id="Illustrations"><path class="cls-1" d="M58.41,29.61c-.26,3.7-2.57,5.14-4.7,5.14a4.25,4.25,0,0,1,0-8.5,4.11,4.11,0,0,1,.88.09C55.92,22.25,52,21,49.7,22.25a5.37,5.37,0,0,0-3-5.49,4.89,4.89,0,0,0-3,5.49c-2.28-1.25-6.21,0-4.94,4.09a4.11,4.11,0,0,1,.88-.09,4.25,4.25,0,0,1,0,8.5c-2.13,0-4.43-1.44-4.7-5.14-.66-9.32-10.08-5.74-10.08-5.74l9.43,16H59.06l9-15.32S59.07,20.29,58.41,29.61Z"/><path class="cls-1" d="M57.32,55.56a5.8,5.8,0,0,1,5.08,2.66,14.25,14.25,0,0,0,2.18-7.48c0-5.66-4-7.05-8.71-7.05H32.4c0,3.11,1,6.67,4.36,7.74,0,0-1.1,9-2.37,18.88a3.1,3.1,0,0,0,1.94,3.28,28.1,28.1,0,0,0,19.2.48c-2-2.7-3.05-6.51-3.05-11.65C52.48,57.49,53.68,55.56,57.32,55.56Z"/><path class="cls-1" d="M46.6,82.36s-3.86,4.46-2.47,8.43c.53,1.52,1.43,2.39,2.47,2.39s1.93-.87,2.46-2.39C50.41,86.93,46.6,82.36,46.6,82.36Z"/><path class="cls-1" d="M46.58,10.82s3.86-4.46,2.47-8.43C48.52.87,47.62,0,46.58,0s-1.93.87-2.46,2.39C42.77,6.25,46.58,10.82,46.58,10.82Z"/><path class="cls-1" d="M60.25,13.55s5.27-2.64,5.51-6.84c.09-1.61-.41-2.76-1.37-3.15s-2.12.06-3.19,1.26C58.48,7.87,60.25,13.55,60.25,13.55Z"/><path class="cls-1" d="M71.83,21.3s5.88-.41,7.71-4.21c.7-1.45.68-2.7-.05-3.43s-2-.75-3.44-.05C72.37,15.38,71.83,21.3,71.83,21.3Z"/><path class="cls-1" d="M79.57,32.9s5.59,1.87,8.73-.94c1.2-1.07,1.66-2.23,1.27-3.19S88,27.31,86.41,27.41C82.33,27.64,79.57,32.9,79.57,32.9Z"/><path class="cls-1" d="M82.28,46.58s4.45,3.86,8.43,2.47c1.51-.53,2.38-1.43,2.38-2.47s-.87-1.93-2.38-2.46C86.84,42.77,82.28,46.58,82.28,46.58Z"/><path class="cls-1" d="M79.55,60.25s2.63,5.27,6.84,5.51c1.6.09,2.75-.41,3.15-1.37s-.07-2.12-1.27-3.19C85.22,58.48,79.55,60.25,79.55,60.25Z"/><path class="cls-1" d="M71.79,71.83s.42,5.88,4.21,7.71c1.45.7,2.7.68,3.43-.05s.76-2,.06-3.44C77.71,72.37,71.79,71.83,71.79,71.83Z"/><path class="cls-1" d="M60.19,79.57s-1.86,5.59.94,8.73c1.07,1.2,2.24,1.66,3.2,1.27s1.45-1.55,1.36-3.16C65.46,82.33,60.19,79.57,60.19,79.57Z"/><path class="cls-1" d="M46.52,82.28S42.65,86.73,44,90.71c.53,1.51,1.43,2.38,2.47,2.38s1.94-.87,2.47-2.38C50.33,86.84,46.52,82.28,46.52,82.28Z"/><path class="cls-1" d="M32.85,79.55s-5.28,2.63-5.51,6.84c-.1,1.6.4,2.75,1.36,3.15s2.12-.07,3.19-1.27C34.62,85.22,32.85,79.55,32.85,79.55Z"/><path class="cls-1" d="M21.26,71.79s-5.88.42-7.71,4.21c-.7,1.45-.68,2.7.06,3.43s2,.76,3.43.06C20.73,77.71,21.26,71.79,21.26,71.79Z"/><path class="cls-1" d="M13.52,60.19s-5.59-1.86-8.73.94c-1.2,1.07-1.66,2.24-1.26,3.2s1.54,1.45,3.15,1.36C10.76,65.46,13.52,60.19,13.52,60.19Z"/><path class="cls-1" d="M10.82,46.52S6.36,42.65,2.39,44C.87,44.57,0,45.47,0,46.51S.87,48.45,2.39,49C6.25,50.33,10.82,46.52,10.82,46.52Z"/><path class="cls-1" d="M13.55,32.85s-2.64-5.28-6.84-5.51c-1.61-.1-2.76.4-3.15,1.36s.06,2.12,1.26,3.19C7.87,34.62,13.55,32.85,13.55,32.85Z"/><path class="cls-1" d="M21.3,21.26s-.41-5.88-4.21-7.71c-1.45-.7-2.7-.68-3.43.06s-.75,2-.05,3.43C15.38,20.73,21.3,21.26,21.3,21.26Z"/><path class="cls-1" d="M32.9,13.52S34.77,7.93,32,4.79c-1.07-1.2-2.23-1.66-3.19-1.26s-1.46,1.54-1.36,3.15C27.64,10.76,32.9,13.52,32.9,13.52Z"/></g></g></svg>