<svg xmlns="http://www.w3.org/2000/svg" viewBox="0 0 88.49 88.49"><defs><style>.cls-1{fill:#231f20;}</style></defs><title>Asset 61</title><g id="Layer_2" data-name="Layer 2"><g id="Illustrations"><path class="cls-1" d="M33.83,19.46c0,3.06-3,5.54-6.68,5.54s-6.68-2.48-6.68-5.54V13.84c0-3.06,3-5.54,6.68-5.54s6.68,2.48,6.68,5.54Z"/><path class="cls-1" d="M17.62,27.27c-3.51.82-6.44,3.19-7.11,6.73l-5,26.09A6.77,6.77,0,0,0,12,55.29L17,39.2c-1.09,23.85-1.54,9-.41,49.29a5.87,5.87,0,0,0,5.79-4.95l4.23-26.8,4.23,26.8a5.87,5.87,0,0,0,5.79,4.95c.81-29,.67-41.37.53-46C36.94,35,56.09,31.42,56.23,15.67,41,27,40,26.73,27.19,26.52A39.56,39.56,0,0,0,17.62,27.27Z"/><path class="cls-1" d="M88.49,52.54H44.24A5.53,5.53,0,0,1,49.77,47H83V5.53H5.53V24A5.54,5.54,0,0,1,0,29.5H0V0H88.49Z"/></g></g></svg>