<svg xmlns="http://www.w3.org/2000/svg" viewBox="0 0 84.32 89.73"><defs><style>.cls-1{fill:#231f20;}</style></defs><title>Asset 51</title><g id="Layer_2" data-name="Layer 2"><g id="Illustrations"><path class="cls-1" d="M65.87,30.23l-1.34-7-3.8,6.09a19.53,19.53,0,0,1-3.65,4.09c-.86-9.79-6.32-26.42-25.81-31.68L25.05,0l3,5.7c.07.13,6.14,11.86,1.84,23.23a27,27,0,0,1-3.85-6.83l-1.78-4.66-3.06,3.94c-4.21,5.41-6.3,12.81-5.86,20.85A25.29,25.29,0,0,0,40.58,66.14c8.65,0,15.31-2.74,19.78-8.15C69,47.51,66,30.93,65.87,30.23ZM32.09,41.62s3.07,3.78,6.3,3.94c3-3.26,3-13.25,3-13.25s6.25,6.82,6.37,16C48.06,60.49,23.45,58.65,32.09,41.62Z"/><path class="cls-1" d="M15,89.73V76.43H11.8A11.79,11.79,0,0,1,0,64.64V26.11a9.56,9.56,0,0,1,9.56-9.56h7.18a5.61,5.61,0,0,1-5.61,5.61H9.56a4,4,0,0,0-3.95,3.95V64.64a6.19,6.19,0,0,0,6.19,6.18h8.84v7.29l9.78-7.76H71.21a7.49,7.49,0,0,0,7.49-7.5V27a3.94,3.94,0,0,0-3.94-3.94H73.19a5.62,5.62,0,0,1-5.62-5.61h7.19A9.55,9.55,0,0,1,84.32,27V62.85A13.11,13.11,0,0,1,71.2,76H32.38Z"/></g></g></svg>