<svg xmlns="http://www.w3.org/2000/svg" viewBox="0 0 88.46 84.78"><defs><style>.cls-1{fill:#231f20;}</style></defs><title>Asset 57</title><g id="Layer_2" data-name="Layer 2"><g id="Illustrations"><path class="cls-1" d="M87,33.1c-7.2-4.36-15-3.68-20.4,1.77a20.42,20.42,0,0,1-1.61,1.51c-3,2.39-15.69,11.68-15.69,11.68L42.4,43.22V12.38H28.57V0L0,11.43v60L28.57,82.83v-17h5.19l8.59,6a4.16,4.16,0,0,0-.3,2.69,3.87,3.87,0,0,0,1.12,1.89,1.85,1.85,0,0,1,.14.14A20.47,20.47,0,0,0,55.9,84.71l.44.07.43-.11c1-.23,3.74-1.61,8.76-9.27a7.56,7.56,0,0,0,1-2.86c.33-1.66.74-3.73,3.58-7a14.78,14.78,0,0,1,3.15-2.62,16.55,16.55,0,0,0,5.2-5,111.18,111.18,0,0,0,9.81-20.81A3.26,3.26,0,0,0,87,33.1ZM23,74.66l-17.51-7V15.17L23,8.17Zm21.69-7.89L29.5,56.11V40.8L50.7,56C50.35,60.8,46.81,64.81,44.73,66.77Zm16.94,6.11c-3.1,4.74-5,6.52-5.82,7.12a14.67,14.67,0,0,1-2.47-.91l1.94-2.68a9.54,9.54,0,0,1,6.39-3.62Zm12.9-17.5a12.46,12.46,0,0,1-3.93,3.7,19.27,19.27,0,0,0-4,3.42A21.11,21.11,0,0,0,63,68.06,14.49,14.49,0,0,0,51.6,73.7l-2.09,2.87c-.85-.75-2.68-3-2.79-3.09a4.13,4.13,0,0,0,.75-2.72.43.43,0,0,1,.13-.36c6.8-6.23,9.26-13.77,6.81-20.5.85-.67,2-1.48,3.18-2.36l1.8,5.39a2.3,2.3,0,0,0,2.19,1.58,2.3,2.3,0,0,0,2.18-3l-1.84-5.53a2.25,2.25,0,0,0-.72-1c1-.71,2-1.46,3-2.24l1.58,5.52A2.3,2.3,0,0,0,70.25,47L68.4,40.51a2.14,2.14,0,0,0-.37-.72c.49-.41,1.07-.94,1.8-1.68,3.69-3.73,8.65-4.3,13.75-1.63A107.44,107.44,0,0,1,74.57,55.38Z"/></g></g></svg>