<svg xmlns="http://www.w3.org/2000/svg" viewBox="0 0 91.02 88.72"><defs><style>.cls-1{fill:#231f20;}</style></defs><title>Asset 38</title><g id="Layer_2" data-name="Layer 2"><g id="Illustrations"><path class="cls-1" d="M42.92,6c-9.35-9.35-19.73-.18-19.73,2.81,0-3-10.39-12.16-19.74-2.81a11.81,11.81,0,0,0,0,16.68C21,40.84,23.19,43,23.19,43s2.18-2.18,19.73-20.31A11.81,11.81,0,0,0,42.92,6Z"/><path class="cls-1" d="M46.93,27.66,59.17,42.38a1.79,1.79,0,0,0,1.38.64H91V33.46a12,12,0,0,0-12-11.95h-6V5.38a5.38,5.38,0,0,0-10.76,0V28.55a.89.89,0,0,1-.89.9.88.88,0,0,1-.58-.21,12.53,12.53,0,0,0-12.33-2.17Z"/><path class="cls-1" d="M65.7,53.6c-15.61.2-24.14,17.56-24.14,17.56S50.09,88.53,65.7,88.72c15.58-.19,24.14-17.56,24.14-17.56S81.29,53.79,65.7,53.6Zm0,28.53a11,11,0,1,1,11-11A11,11,0,0,1,65.7,82.13Z"/><circle class="cls-1" cx="65.7" cy="71.16" r="4.39"/><path class="cls-1" d="M.93,50.16l9.59,35.17,8.63-8.63,9.59,9.59a2.27,2.27,0,0,0,3.2,0l2.55-2.56,2.56-2.56a2.26,2.26,0,0,0,0-3.19l-9.59-9.59,8.63-8.64Z"/></g></g></svg>