<svg xmlns="http://www.w3.org/2000/svg" viewBox="0 0 92.36 79.15"><defs><style>.cls-1{fill:#231f20;}</style></defs><title>Asset 29</title><g id="Layer_2" data-name="Layer 2"><g id="Illustrations"><path class="cls-1" d="M46.18,79.15a82,82,0,0,0,22-3c-.55-3.85-4.09-20.38-22-20.38s-21.49,16.52-22,20.37A81.56,81.56,0,0,0,46.18,79.15Z"/><path class="cls-1" d="M92.36,12.9A10.82,10.82,0,0,0,87.6,4a61.74,61.74,0,0,0-6.8-4V6.79C71.07,9,59.46,10.1,46.18,10.1S21.29,9,11.55,6.79V0A62.53,62.53,0,0,0,4.76,4,10.8,10.8,0,0,0,0,12.9V58.57a10.8,10.8,0,0,0,4.76,8.94,60.94,60.94,0,0,0,6.79,4V64a118.92,118.92,0,0,1,14.7-2.72,23.86,23.86,0,0,1,5.94-5.45,133,133,0,0,0-20.64,3.21V11.71a166.81,166.81,0,0,0,34.63,3.2A167.32,167.32,0,0,0,80.8,11.72V59.07a131.58,131.58,0,0,0-20.62-3.21,23.86,23.86,0,0,1,5.94,5.45A120.15,120.15,0,0,1,80.8,64v7.45a60.19,60.19,0,0,0,6.8-4,10.82,10.82,0,0,0,4.76-8.94Z"/><path class="cls-1" d="M57.72,23.35A14.1,14.1,0,0,0,46,17.69a14.12,14.12,0,0,0-11.73,5.69A10.46,10.46,0,0,0,33.11,44c1.66,4.62,6.81,8,12.91,8s11.19-3.32,12.87-7.89a10.47,10.47,0,0,0-1.17-20.7Zm1.81,12.94a2.18,2.18,0,0,1-2.18,2.17H35a2.17,2.17,0,0,1-2.17-2.17v-5A2.18,2.18,0,0,1,35,29.08H57.35a2.19,2.19,0,0,1,2.18,2.18Z"/></g></g></svg>