<svg xmlns="http://www.w3.org/2000/svg" viewBox="0 0 96.06 104.4"><defs><style>.cls-1{fill:#231f20;}</style></defs><title>Asset 30</title><g id="Layer_2" data-name="Layer 2"><g id="Illustrations"><ellipse class="cls-1" cx="67.19" cy="88.1" rx="2.5" ry="4.33" transform="translate(-21.27 154.82) rotate(-89.69)"/><path class="cls-1" d="M65.05,67.84,88.91,81.61,57.52,99.74a3.41,3.41,0,0,1-2.78.2L5,71.2l31.4-18.13a3.45,3.45,0,0,1,2.78-.2l9.28,5.36a29.54,29.54,0,0,1,1.93-3.8l-9.09-5.24a7.56,7.56,0,0,0-7,.2L2.27,67.84A4.07,4.07,0,0,0,0,71.28a3.56,3.56,0,0,0,1.91,3.08l50.7,29.27a6.54,6.54,0,0,0,3.21.77,7.77,7.77,0,0,0,3.83-1L91.6,85a4,4,0,0,0,2.26-3.44A3.53,3.53,0,0,0,92,78.46L72.29,67.16A43.8,43.8,0,0,0,68,64.75C67.92,64.7,65.24,67.63,65.05,67.84Z"/><path class="cls-1" d="M57.14,73.49a4.26,4.26,0,0,1-1.73.66,4.73,4.73,0,0,1-4,2.18A4.62,4.62,0,0,1,49,75.65a4.71,4.71,0,0,1-1.65-6.37,4.41,4.41,0,0,1-.21-1.85c.29-2.89.62-5.26.88-7L37.94,54.66,9.27,71.22,46.1,92.48,74.78,75.93,63.21,69.25C61.82,70.29,59.77,71.76,57.14,73.49Z"/><rect class="cls-1" x="75.18" y="79.46" width="7.8" height="3.55" rx="1.77" ry="1.77" transform="translate(51.21 -28.66) rotate(30)"/><rect class="cls-1" x="70.33" y="82.26" width="7.8" height="3.55" rx="1.77" ry="1.77" transform="translate(51.96 -25.86) rotate(30)"/><rect class="cls-1" x="56.27" y="90.37" width="7.8" height="3.55" rx="1.77" ry="1.77" transform="translate(54.13 -17.74) rotate(30)"/><rect class="cls-1" x="51.42" y="93.17" width="7.8" height="3.55" rx="1.77" ry="1.77" transform="translate(54.88 -14.94) rotate(30)"/><path class="cls-1" d="M94.57.45a3.11,3.11,0,0,0-4.27,1l-.48.8,5.31,3.22.48-.8A3.1,3.1,0,0,0,94.57.45Z"/><path class="cls-1" d="M94.63,7.94,88.11,4a2,2,0,0,0-2.69.73c-3.28,5.41-27,44.56-32.65,51.53l11.67,7.08S94.91,11.38,95.23,10.67A2.09,2.09,0,0,0,94.63,7.94Zm-27,39.59-4.31,7.11a1.16,1.16,0,0,1-1.58.39l-.38-.23A1.15,1.15,0,0,1,61,53.22l4.31-7.11a1.14,1.14,0,0,1,1.57-.39l.38.23A1.15,1.15,0,0,1,67.64,47.53Z"/><path class="cls-1" d="M51.53,58.19s-.77,3.68-1.35,9.54a1.23,1.23,0,0,0,.57,1.19l.28.17-1,1.67a1.66,1.66,0,1,0,2.84,1.72l1-1.68.28.17a1.22,1.22,0,0,0,1.32,0c4.93-3.23,7.83-5.61,7.83-5.61Z"/><path class="cls-1" d="M48.41,32c2-3.25,5.76-4.88,9.65-5.1a24.63,24.63,0,0,0-10,16C46.59,39.3,46.38,35.19,48.41,32Z"/><path class="cls-1" d="M54.06,35.47a8.2,8.2,0,0,1,6.06-3.64,24.61,24.61,0,0,0-6.67,10.68A8.26,8.26,0,0,1,54.06,35.47Z"/><path class="cls-1" d="M89.11,55.9c-2,3.25-5.76,4.87-9.65,5.1a24.69,24.69,0,0,0,10-16C90.93,48.56,91.13,52.67,89.11,55.9Z"/><path class="cls-1" d="M83.46,52.38A8.25,8.25,0,0,1,77.4,56a24.57,24.57,0,0,0,6.66-10.69A8.22,8.22,0,0,1,83.46,52.38Z"/></g></g></svg>