<svg xmlns="http://www.w3.org/2000/svg" viewBox="0 0 59.63 88.52"><defs><style>.cls-1{fill:#231f20;}</style></defs><title>Asset 43</title><g id="Layer_2" data-name="Layer 2"><g id="Illustrations"><path class="cls-1" d="M57.22,28.55v-5.2A6.23,6.23,0,0,0,51,17.13H47.83A16.56,16.56,0,0,1,43.28,6a4.86,4.86,0,0,0-3.42-4.25,36.24,36.24,0,0,0-22.49,0A4.83,4.83,0,0,0,14,6c-.34,5.41-1.84,7.67-4.56,11.09H6.22A6.23,6.23,0,0,0,0,23.35V65.12a6.23,6.23,0,0,0,6.22,6.22H9.39c2.49,3.32,4.22,5.69,4.55,11.1a4.88,4.88,0,0,0,3.43,4.25,35.4,35.4,0,0,0,22.49,0,4.87,4.87,0,0,0,3.42-4.25c.33-5.4,1.44-7,4.55-11.1H51a6.23,6.23,0,0,0,6.22-6.22v-22l2.41-1V29.52ZM51.69,65.12a.69.69,0,0,1-.69.69H6.22a.69.69,0,0,1-.69-.69V23.35a.69.69,0,0,1,.69-.69H51a.69.69,0,0,1,.69.69Z"/><polygon class="cls-1" points="34.55 32.25 29.4 46.42 23.67 27.52 18.03 42.89 11.85 42.89 11.85 47.5 21.25 47.5 23.26 42.03 29 60.99 35.33 43.61 37.37 47.5 45.51 47.5 45.51 42.89 40.16 42.89 34.55 32.25"/></g></g></svg>