<?xml version="1.0" encoding="utf-8"?>
<!-- Generator: Adobe Illustrator 22.0.0, SVG Export Plug-In . SVG Version: 6.00 Build 0)  -->
<svg version="1.1" id="Layer_1" xmlns="http://www.w3.org/2000/svg" xmlns:xlink="http://www.w3.org/1999/xlink" x="0px" y="0px"
	 viewBox="0 0 111.6 110.5" style="enable-background:new 0 0 111.6 110.5;" xml:space="preserve">
<title>Asset 24</title>
<g>
	<path d="M85,0C70.4,0,58.5,11.7,58.5,26.2c0,14.4,11.9,26.2,26.6,26.2s26.6-11.7,26.6-26.2C111.6,11.7,99.7,0,85,0z M94.7,7
		c3.1,1.5,5.8,3.8,7.8,6.5l0.9,1.2h-7.7l-0.1-0.6c-0.5-2.1-1-4-1.7-5.7c0-0.1-0.1-0.2-0.1-0.2l-0.9-2.1L94.7,7z M79.4,13.8
		c0.3-1.3,0.7-2.5,1.1-3.6c0.7-1.9,1.6-3.4,2.5-4.3c1.4-1.5,2.6-1.5,4,0c0.9,1,1.8,2.5,2.5,4.3c0.4,1,0.8,2.2,1.1,3.6l0.2,0.9H79.1
		L79.4,13.8z M67.5,13.6c2-2.7,4.7-5,7.8-6.5l1.8-0.9l-0.9,2.1c0,0.1-0.1,0.2-0.1,0.2c-0.7,1.7-1.2,3.6-1.7,5.7l-0.1,0.6h-7.7
		L67.5,13.6z M63.9,31.2c-0.4-1.7-0.6-3.4-0.6-5c0-1.9,0.3-3.8,0.8-5.7l0.2-0.5h9.3l-0.1,0.8c-0.2,1.8-0.2,3.7-0.2,5.5
		c0,1.6,0.1,3.2,0.2,4.7l0.1,0.8h-9.4L63.9,31.2z M75.3,45.3c-3.7-1.8-6.7-4.6-8.8-8l-0.7-1.1H74l0.1,0.6c0.5,2.7,1.2,5.1,2,7.2
		c0,0.1,0.1,0.2,0.1,0.2l0.9,2.1L75.3,45.3z M91,37c-0.4,1.9-0.9,3.6-1.5,5.1c-0.7,1.9-1.6,3.4-2.5,4.3c-0.7,0.8-1.4,1.1-2,1.1
		s-1.3-0.4-2-1.1c-0.9-1-1.8-2.5-2.5-4.3c-0.6-1.5-1.1-3.2-1.5-5.1l-0.2-0.9h12.4L91,37z M91.9,31l-0.1,0.7H78.2L78.1,31
		c-0.1-1.6-0.2-3.3-0.2-4.9c0-1.8,0.1-3.7,0.3-5.6l0.1-0.7h13.5l0.1,0.7c0.2,1.9,0.3,3.8,0.3,5.6C92.1,27.8,92,29.4,91.9,31z
		 M103.5,37.3c-2.1,3.5-5.2,6.2-8.8,8l-1.8,0.9l0.9-2.1c0-0.1,0.1-0.2,0.1-0.2c0.8-2.1,1.5-4.5,2-7.2l0.1-0.6h8.3L103.5,37.3z
		 M106,31.7h-9.4l0.1-0.8c0.1-1.6,0.2-3.2,0.2-4.7c0-1.8-0.1-3.6-0.2-5.5l-0.1-0.8h9.3l0.2,0.5c0.5,1.9,0.8,3.8,0.8,5.7
		c0,1.6-0.2,3.3-0.6,5L106,31.7z"/>
	<g>
		<path d="M48.1,93.7v13.1c0,1.3,1.1,2.4,2.4,2.4h28.5c1.3,0,2.4-1.1,2.4-2.4V93.7c-4.5,2.3-10.4,3.6-16.6,3.6
			C58.5,97.4,52.6,96.1,48.1,93.7z"/>
		<path d="M56.2,84h-6.4c-1.4,0-2.5,1.1-2.5,2.5v4.1L48,91c4.2,2.6,10.3,4.2,16.8,4.2s12.5-1.5,16.8-4.2l0.6-0.4v-4.1
			c0-1.4-1.1-2.5-2.5-2.5h-6.4v-2.3v-0.2c0-2.6-2.2-4.8-4.8-4.8H61c-2.6,0-4.8,2.2-4.8,4.8v0.2L56.2,84L56.2,84z M60.8,81.5
			c0-0.1,0.1-0.2,0.2-0.2h7.4c0.1,0,0.2,0.1,0.2,0.2v0.2V84h-7.8v-2.3V81.5z"/>
	</g>
	<g>
		<path d="M38.4,16.1c0,4.2-4.1,7.6-9.1,7.6s-9.1-3.4-9.1-7.6V8.4c0-4.2,4.1-7.6,9.1-7.6s9.1,3.4,9.1,7.6V16.1z"/>
		<path d="M50.6,36c-0.9-4.8-4.8-8.6-9.7-9.2c-7-0.9-15.3-1.2-24.6,0c-4.9,0.6-8.8,4.4-9.7,9.2L0,70.5c4.1,0,7.7-2.7,8.9-6.6l6-19.7
			c-1.5,32.6-1.5,11.2,0,66.3c3.9,0,7.3-2.9,7.9-6.8l5.8-36.7l5.8,36.7c0.6,3.9,4,6.8,7.9,6.8c1.5-55.1,1.5-33.7,0-66.3l6,19.7
			c1.2,3.9,4.8,6.6,8.9,6.6L50.6,36z"/>
	</g>
</g>
</svg>
